<svg width="59" height="56" viewBox="0 0 59 56" fill="none" xmlns="http://www.w3.org/2000/svg">
<path d="M36.1133 55.2841H26.646C25.7889 55.2841 25.1006 54.5951 25.1006 53.7371V3.21912C25.1006 2.36112 25.7889 1.67212 26.646 1.67212H36.1133C36.9704 1.67212 37.6587 2.36112 37.6587 3.21912V53.7371C37.6587 54.5951 36.9704 55.2841 36.1133 55.2841Z" fill="#0875F7"/>
<path d="M34.2433 30.3111H28.5292C27.6981 30.3111 27.0098 29.6351 27.0098 28.7901V28.1531C27.0098 27.3211 27.6851 26.6321 28.5292 26.6321H34.2433C35.0745 26.6321 35.7628 27.3081 35.7628 28.1531V28.7901C35.7498 29.6351 35.0745 30.3111 34.2433 30.3111Z" fill="#084FC7"/>
<path d="M37.6587 6.00122H25.1006V8.06822H37.6587V6.00122Z" fill="#084FC7"/>
<path d="M37.6587 10.3301H25.1006V12.3971H37.6587V10.3301Z" fill="#084FC7"/>
<path d="M37.6587 42.2842H25.1006V44.3512H37.6587V42.2842Z" fill="#084FC7"/>
<path d="M37.6587 46.613H25.1006V48.6801H37.6587V46.613Z" fill="#084FC7"/>
<path d="M12.1661 55.2841H0.387163C0.179376 55.2841 -0.00244141 55.1151 -0.00244141 54.8941V2.06212C-0.00244141 1.85412 0.166389 1.67212 0.387163 1.67212H12.1661C12.3739 1.67212 12.5557 1.84112 12.5557 2.06212V54.8941C12.5557 55.1151 12.3739 55.2841 12.1661 55.2841Z" fill="#21B573"/>
<path d="M9.12713 30.3111H3.413C2.58186 30.3111 1.89355 29.6351 1.89355 28.7901V28.1531C1.89355 27.3211 2.56887 26.6321 3.413 26.6321H9.12713C9.95827 26.6321 10.6466 27.3081 10.6466 28.1531V28.7901C10.6466 29.6351 9.95827 30.3111 9.12713 30.3111Z" fill="#217C58"/>
<path d="M12.5557 6.00122H-0.00244141V8.06822H12.5557V6.00122Z" fill="#217C58"/>
<path d="M12.5557 10.3301H-0.00244141V12.3971H12.5557V10.3301Z" fill="#217C58"/>
<path d="M12.5557 42.2842H-0.00244141V44.3512H12.5557V42.2842Z" fill="#217C58"/>
<path d="M12.5557 46.613H-0.00244141V48.6801H12.5557V46.613Z" fill="#217C58"/>
<path d="M23.5552 55.2841H14.0879C13.2308 55.2841 12.5425 54.5951 12.5425 53.7371V3.21912C12.5425 2.36112 13.2308 1.67212 14.0879 1.67212H23.5552C24.4123 1.67212 25.1006 2.36112 25.1006 3.21912V53.7371C25.1006 54.5951 24.4123 55.2841 23.5552 55.2841Z" fill="#DF615C"/>
<path d="M21.6852 30.3111H15.9711C15.14 30.3111 14.4517 29.6351 14.4517 28.7901V28.1531C14.4517 27.3211 15.127 26.6321 15.9711 26.6321H21.6852C22.5164 26.6321 23.2047 27.3081 23.2047 28.1531V28.7901C23.2047 29.6351 22.5164 30.3111 21.6852 30.3111Z" fill="#A92F4B"/>
<path d="M25.1138 6.00122H12.5557V8.06822H25.1138V6.00122Z" fill="#A92F4B"/>
<path d="M25.1138 10.3301H12.5557V12.3971H25.1138V10.3301Z" fill="#A92F4B"/>
<path d="M25.1138 42.2842H12.5557V44.3512H25.1138V42.2842Z" fill="#A92F4B"/>
<path d="M25.1138 46.613H12.5557V48.6801H25.1138V46.613Z" fill="#A92F4B"/>
<path d="M58.0611 53.3991L46.425 55.2711C46.2172 55.3101 46.0095 55.1671 45.9835 54.9461L37.5811 2.79013C37.5421 2.58213 37.685 2.37413 37.9058 2.34813L49.5418 0.476129C49.7496 0.437129 49.9574 0.580129 49.9834 0.801129L58.3857 52.9571C58.4117 53.1651 58.2689 53.3601 58.0611 53.3991Z" fill="#FAAF3A"/>
<path d="M52.2559 29.0371L44.2951 30.3241C44.1133 30.3501 43.9444 30.2331 43.9055 30.0511L43.425 27.0871C43.399 26.9051 43.5159 26.7361 43.6977 26.6971L51.6585 25.4101C51.8403 25.3841 52.0092 25.5011 52.0481 25.6831L52.5286 28.6471C52.5546 28.8291 52.4377 29.0111 52.2559 29.0371Z" fill="#C77E2E"/>
<path d="M50.6218 4.67789L38.2231 6.6792L38.5519 8.71996L50.9505 6.71866L50.6218 4.67789Z" fill="#C77E2E"/>
<path d="M51.3107 8.955L38.9121 10.9563L39.2408 12.997L51.6395 10.9957L51.3107 8.955Z" fill="#C77E2E"/>
<path d="M56.3879 40.4965L43.9893 42.4978L44.318 44.5385L56.7166 42.5372L56.3879 40.4965Z" fill="#C77E2E"/>
<path d="M57.0808 44.7702L44.6821 46.7715L45.0109 48.8122L57.4095 46.8109L57.0808 44.7702Z" fill="#C77E2E"/>
</svg>
