<svg width="360" height="589" viewBox="0 0 360 589" fill="none" xmlns="http://www.w3.org/2000/svg">
<path d="M177.673 500.957C177.281 500.957 176.89 500.886 176.498 500.743L40.128 451.58C38.3486 450.939 37.4234 448.964 38.0639 447.185C38.7045 445.405 40.6796 444.462 42.459 445.121L178.829 494.284C180.609 494.925 181.552 496.9 180.894 498.679C180.413 500.085 179.079 500.957 177.673 500.957Z" fill="#C77E2E"/>
<path d="M35.6266 500.957C34.2209 500.957 32.9042 500.085 32.3882 498.679C31.7476 496.9 32.6728 494.925 34.4522 494.266L172.442 444.284C174.221 443.644 176.196 444.569 176.855 446.348C177.495 448.128 176.57 450.103 174.791 450.761L36.801 500.743C36.4095 500.886 36.0181 500.957 35.6266 500.957Z" fill="#C77E2E"/>
<path d="M189.808 588.822C186.908 588.822 184.381 586.669 183.972 583.715L159.345 399.782H56.2669L32.0142 583.715C31.5871 586.936 28.6334 589.213 25.4127 588.786C22.1921 588.359 19.9145 585.405 20.3415 582.185L45.2704 393.163C45.6619 390.227 48.153 388.038 51.1067 388.038H164.506C167.459 388.038 169.95 390.227 170.342 393.145L195.662 582.167C196.089 585.388 193.83 588.359 190.609 588.786C190.324 588.804 190.075 588.822 189.808 588.822Z" fill="#FAAF3A"/>
<path d="M131.659 393.91H58.0108C34.6833 393.91 9.70105 381.134 6.10674 358.092C1.32025 327.255 0.128088 297.415 1.46261 270.013C2.97507 239.034 17.7794 210.209 42.1211 190.992C42.1211 190.992 56.8364 255.102 38.331 343.59C45.4129 377.184 131.659 393.91 131.659 393.91Z" fill="#FAAF3A"/>
<path d="M116.303 17.9129C116.303 17.9129 107.548 -3.19042 84.3631 0.795352C68.1709 3.57116 61.2669 23.7491 62.21 54.9236C63.5979 100.28 48.2598 127.611 48.2598 127.611L68.6157 132.237C68.6335 132.219 120.466 54.461 116.303 17.9129Z" fill="#39393B"/>
<path d="M302.032 510.014H269.132C269.132 510.014 261.516 473.501 258.972 453.038C256.41 432.558 255.093 384.035 255.093 384.035C255.093 384.035 228.883 392.558 174.007 389.337C52.4232 382.237 98.5266 292.913 98.5266 292.913C102.637 298.59 127.797 294.657 145.004 297.362C197.797 302.433 243.563 323.145 271.036 334.995C277.655 337.842 283.527 340.867 288.687 344.052C295.306 348.127 299.452 360.529 301.961 376.81C309.452 425.761 302.032 510.014 302.032 510.014Z" fill="#39393B"/>
<path d="M273.225 492.416C272.673 492.416 272.193 492.024 272.068 491.473C267.317 467.985 265.734 438.75 264.452 415.263C263.385 395.778 262.388 377.38 259.879 375.173C257.851 373.376 249.435 374.782 238.794 376.544C217.602 380.067 185.573 385.369 150.271 377.166C131.036 372.682 116.89 363.341 108.242 349.39C93.3131 325.333 100.128 295.493 100.199 295.191C100.342 294.55 100.982 294.159 101.623 294.319C102.263 294.461 102.655 295.102 102.495 295.743C102.423 296.027 95.8576 324.942 110.27 348.163C118.58 361.561 132.228 370.547 150.822 374.871C185.68 382.985 217.424 377.718 238.438 374.23C251.018 372.149 258.616 370.885 261.481 373.412C264.577 376.152 265.449 389.604 266.837 415.138C268.118 438.554 269.702 467.683 274.417 491.01C274.541 491.651 274.132 492.273 273.492 492.398C273.367 492.416 273.296 492.416 273.225 492.416Z" fill="#585859"/>
<path d="M302.655 493.038H302.637L266.054 492.255C265.395 492.238 264.879 491.704 264.897 491.045C264.915 490.387 265.449 489.871 266.107 489.889L302.691 490.672C303.349 490.69 303.865 491.223 303.847 491.882C303.829 492.522 303.296 493.038 302.655 493.038Z" fill="#585859"/>
<path d="M301.125 552.149H277.904L273.438 524.925L270.982 510.014H299.826L300.289 524.925L301.125 552.149Z" fill="#EA9B7A"/>
<path d="M301.125 552.149H277.904L274.577 531.882L273.438 524.925H300.289L300.52 532.131L301.125 552.149Z" fill="#FAAF3A"/>
<path d="M300.52 532.131L274.577 531.882L273.438 524.925H300.289L300.52 532.131Z" fill="#C77E2E"/>
<path d="M358.42 588.822H270.609C269.95 587.629 269.595 585.957 269.452 583.946C268.901 576.508 271.267 564.658 272.424 557.185C272.566 556.313 272.691 555.494 272.78 554.765C272.94 553.519 273.047 552.469 273.047 551.704C273.047 545.601 278.438 546.651 278.438 546.651C287.317 555.37 297.388 542.291 303.26 546.58C303.26 546.58 303.491 546.757 304.043 547.167C304.541 547.558 305.289 548.163 306.321 549.035C307.815 550.281 309.915 552.096 312.762 554.658C319.737 560.939 331.588 565.067 341.677 569.284C342.958 569.818 344.15 570.37 345.271 570.903C346.107 571.313 346.908 571.722 347.655 572.113C355.912 576.562 358.527 580.832 359.132 583.928C359.719 586.918 358.42 588.822 358.42 588.822Z" fill="#0875F7"/>
<path d="M347.673 572.131C345.413 573.928 340.378 577.54 336.338 577.54C336.16 577.54 335.983 577.54 335.805 577.523C332.958 577.291 322.495 572.149 313.972 567.469C309.096 564.782 304.63 562.149 301.427 560.031C296.178 556.562 295.253 555.245 295.057 554.32C294.292 550.85 300.022 548.448 304.043 547.184C304.541 547.576 305.289 548.181 306.321 549.053C301.338 550.405 297.228 552.54 297.424 553.768C297.922 554.8 303.118 558.75 315.538 565.565C325.022 570.761 334.007 574.943 336 575.12C338.705 575.334 342.673 572.878 345.271 570.939C346.125 571.33 346.926 571.74 347.673 572.131Z" fill="#084FC7"/>
<path d="M358.42 588.822H270.609C269.95 587.629 269.594 585.957 269.452 583.946H359.15C359.719 586.918 358.42 588.822 358.42 588.822Z" fill="#084FC7"/>
<path d="M279.559 588.822H276.943C279.541 585.85 281.979 581.277 281.658 574.765C281.231 566.081 276.036 560.245 272.406 557.184C272.548 556.313 272.673 555.494 272.762 554.764C276.658 557.736 283.224 564.266 283.74 574.658C284.078 580.886 282.032 585.53 279.559 588.822Z" fill="#084FC7"/>
<path d="M311.285 559.854C310.644 559.854 310.039 559.409 309.879 558.75C309.683 557.967 310.164 557.184 310.929 556.989L316.41 555.619C317.192 555.423 317.975 555.903 318.171 556.668C318.367 557.451 317.886 558.234 317.121 558.43L311.641 559.8C311.516 559.836 311.392 559.854 311.285 559.854Z" fill="white"/>
<path d="M305.84 555.299C305.2 555.299 304.595 554.854 304.434 554.195C304.239 553.412 304.719 552.63 305.484 552.434L310.965 551.064C311.748 550.868 312.531 551.348 312.726 552.114C312.922 552.896 312.442 553.679 311.676 553.857L306.196 555.227C306.071 555.281 305.947 555.299 305.84 555.299Z" fill="white"/>
<path d="M316.765 563.039C316.125 563.039 315.52 562.594 315.36 561.936C315.164 561.153 315.644 560.37 316.409 560.192L321.89 558.822C322.673 558.626 323.456 559.106 323.651 559.871C323.847 560.654 323.367 561.437 322.602 561.633L317.121 563.003C316.997 563.039 316.89 563.039 316.765 563.039Z" fill="white"/>
<path d="M322.246 566.117C321.587 566.117 321 565.672 320.84 565.014C320.644 564.231 321.125 563.448 321.89 563.252L327.37 561.882C328.153 561.686 328.936 562.167 329.132 562.932C329.328 563.715 328.847 564.498 328.082 564.676L322.602 566.046C322.495 566.099 322.37 566.117 322.246 566.117Z" fill="white"/>
<path d="M328.242 568.946C327.602 568.946 326.997 568.501 326.837 567.843C326.641 567.06 327.121 566.277 327.887 566.099L333.367 564.729C334.15 564.533 334.933 565.014 335.129 565.779C335.324 566.562 334.844 567.345 334.079 567.54L328.598 568.911C328.474 568.928 328.349 568.946 328.242 568.946Z" fill="white"/>
<path d="M334.719 571.366C334.079 571.366 333.474 570.921 333.314 570.263C333.118 569.48 333.598 568.697 334.364 568.501L339.844 567.131C340.627 566.935 341.41 567.416 341.606 568.181C341.801 568.964 341.321 569.747 340.556 569.925L335.075 571.295C334.951 571.348 334.844 571.366 334.719 571.366Z" fill="white"/>
<path d="M37.6369 264.586C37.6369 264.586 36.6048 271.685 46.1067 273.678L145.182 276.988C145.182 276.988 151.872 273.625 150.662 265.333C150.662 265.315 108.829 241.81 37.6369 264.586Z" fill="#084FC7"/>
<path d="M146.534 297.344C95.1103 325.636 38.9536 302.86 38.9536 302.86C41.6938 295.369 43.7401 286.917 45.217 279.23C46.9252 270.28 47.886 262.38 48.3309 258.234C70.1992 257.041 123.829 254.746 144.844 259.728L145.004 268.145L146.534 297.344Z" fill="#EA9B7A"/>
<path d="M108.544 283.786C108.171 286.437 106.961 288.465 105.875 288.305C104.772 288.145 104.203 285.867 104.576 283.216C104.95 280.565 106.16 278.536 107.245 278.697C108.349 278.857 108.918 281.134 108.544 283.786Z" fill="#D96C63"/>
<path d="M144.986 268.145C123.082 266.81 80.0036 266.348 45.1992 279.213C46.9074 270.262 47.8683 262.362 48.3131 258.216C70.1815 257.024 123.812 254.728 144.826 259.711L144.986 268.145Z" fill="#D96C63"/>
<path d="M169.417 227.451C169.203 228.091 168.954 228.678 168.669 229.23C168.563 229.443 168.456 229.657 168.349 229.853C165.591 234.959 161.338 239.39 157.762 242.54C157.015 243.198 156.303 243.785 155.644 244.319C154.328 245.387 153.207 246.223 152.442 246.774C151.73 247.273 151.321 247.54 151.321 247.54C151.321 247.593 151.321 247.629 151.303 247.7C151.267 248.073 151.232 248.483 151.196 248.91C151.071 250.529 150.965 252.451 150.894 254.657C150.822 256.419 150.769 258.358 150.733 260.458C150.716 262.006 150.68 263.625 150.662 265.298C121.605 252.308 61.7474 260.511 37.637 264.568C38.0818 262.486 38.4733 260.44 38.847 258.447C40.5551 249.248 41.516 240.974 41.8897 233.554C42.4591 222.522 41.4982 205.938 39.1495 188.803C39.0071 187.682 38.847 186.579 38.6868 185.475C38.5801 184.746 38.4733 184.034 38.3487 183.305C37.5302 177.931 36.5694 172.539 35.484 167.308C30.7331 144.497 34.0605 120.564 57.1922 117.735C58.8648 117.521 60.5196 117.344 62.1388 117.166C73.0285 116.009 81.9965 115.6 84.4877 115.511C84.9503 115.493 85.1816 115.493 85.1816 115.493L129.879 128.482L134.132 129.71C136.57 130.493 138.829 131.258 140.929 132.005C141.819 132.326 142.691 132.646 143.509 132.949C145.68 133.767 147.637 134.55 149.434 135.351C153.011 136.934 155.84 138.482 158.082 140.066C167.886 147.023 166.374 154.888 166.125 170.422C166.125 170.493 166.125 170.564 166.125 170.635C166.125 170.831 166.125 171.027 166.125 171.24C166.125 171.329 166.125 171.418 166.125 171.507C166.125 172.148 166.125 172.771 166.125 173.411C166.143 175.422 166.214 177.415 166.338 179.408C166.499 182.344 166.765 185.262 167.086 188.109C167.21 189.248 167.335 190.386 167.477 191.525C167.602 192.593 167.744 193.643 167.886 194.692C169.63 208.287 171.854 220.209 169.417 227.451Z" fill="#0875F7"/>
<path d="M166.107 170.635C166.107 170.831 166.107 171.027 166.107 171.24C166.107 171.329 166.107 171.418 166.107 171.507C166.107 172.148 166.107 172.771 166.107 173.411L156.712 179.301C156.427 179.479 156.107 179.532 155.787 179.479C155.431 179.425 155.111 179.212 154.897 178.892C154.506 178.269 154.701 177.468 155.306 177.077L165.271 170.831C165.52 170.671 165.822 170.618 166.107 170.635Z" fill="#084FC7"/>
<path d="M104.185 220.956C103.829 220.956 103.473 220.813 103.206 220.529C102.726 219.995 102.762 219.159 103.295 218.678L112.032 210.813C112.566 210.333 113.402 210.369 113.883 210.902C114.363 211.436 114.327 212.273 113.794 212.753L105.057 220.618C104.808 220.831 104.488 220.956 104.185 220.956Z" fill="#084FC7"/>
<path d="M167.851 194.692L161.872 200.084C161.623 200.315 161.303 200.422 161 200.422C160.644 200.422 160.288 200.28 160.021 199.995C159.541 199.461 159.577 198.625 160.11 198.144L167.441 191.543C167.566 192.593 167.708 193.643 167.851 194.692Z" fill="#084FC7"/>
<path d="M86.4627 189.319C86.267 189.016 86.178 188.642 86.267 188.269C86.4271 187.557 87.1389 187.13 87.8506 187.29L99.292 189.995C100.004 190.155 100.431 190.867 100.271 191.578C100.11 192.29 99.3987 192.717 98.6869 192.557L87.2456 189.852C86.9076 189.781 86.6407 189.585 86.4627 189.319Z" fill="#084FC7"/>
<path d="M45.626 211.774C45.2701 211.774 44.9142 211.632 44.6473 211.347C44.1669 210.814 44.2025 209.977 44.7363 209.497L53.473 201.632C54.0068 201.152 54.8431 201.187 55.3235 201.721C55.804 202.255 55.7684 203.091 55.2346 203.572L46.4979 211.436C46.2488 211.668 45.9463 211.774 45.626 211.774Z" fill="#084FC7"/>
<path d="M147.335 209.906C147.442 209.568 147.708 209.265 148.047 209.123C148.705 208.838 149.488 209.141 149.773 209.799L154.47 220.582C154.755 221.241 154.452 222.023 153.794 222.308C153.136 222.593 152.353 222.29 152.068 221.632L147.37 210.849C147.246 210.529 147.246 210.191 147.335 209.906Z" fill="#084FC7"/>
<path d="M169.417 227.451C169.203 228.091 168.954 228.678 168.669 229.23C168.563 229.443 168.456 229.657 168.349 229.853L161.961 227.842C161.641 227.735 161.392 227.522 161.232 227.255C161.054 226.952 160.983 226.561 161.107 226.205C161.321 225.511 162.068 225.137 162.744 225.351L169.417 227.451Z" fill="#084FC7"/>
<path d="M133.331 228.394C133.687 228.358 134.06 228.465 134.345 228.732C134.879 229.212 134.914 230.048 134.434 230.582L126.534 239.283C126.053 239.817 125.217 239.853 124.683 239.372C124.149 238.892 124.114 238.056 124.594 237.522L132.495 228.821C132.726 228.572 133.028 228.429 133.331 228.394Z" fill="#084FC7"/>
<path d="M128.687 208.322C128.331 208.269 128.011 208.055 127.797 207.735C127.406 207.13 127.601 206.312 128.206 205.92L138.171 199.675C138.776 199.283 139.594 199.479 139.986 200.084C140.377 200.689 140.182 201.507 139.577 201.899L129.612 208.144C129.327 208.322 128.989 208.376 128.687 208.322Z" fill="#084FC7"/>
<path d="M135.039 170.458C135.271 170.724 135.413 171.08 135.36 171.472C135.288 172.184 134.63 172.717 133.918 172.628L122.228 171.347C121.516 171.276 120.982 170.618 121.071 169.906C121.142 169.194 121.801 168.66 122.513 168.749L134.203 170.031C134.523 170.066 134.826 170.226 135.039 170.458Z" fill="#084FC7"/>
<path d="M118.046 145.102C118.135 144.746 118.367 144.443 118.705 144.265C119.345 143.927 120.146 144.159 120.484 144.799L126.054 155.155C126.392 155.796 126.16 156.596 125.52 156.934C124.879 157.272 124.078 157.041 123.74 156.401L118.171 146.045C117.993 145.742 117.957 145.404 118.046 145.102Z" fill="#084FC7"/>
<path d="M157.78 242.557C157.032 243.216 156.321 243.803 155.662 244.337L154.132 240.422C154.007 240.102 154.007 239.782 154.132 239.479C154.257 239.141 154.523 238.856 154.879 238.714C155.555 238.447 156.321 238.785 156.588 239.461L157.78 242.557Z" fill="#084FC7"/>
<path d="M50.306 222.629C50.128 222.308 50.0925 221.935 50.2348 221.561C50.4839 220.885 51.2313 220.529 51.9074 220.778L62.9751 224.764C63.6512 225.013 64.0071 225.76 63.758 226.436C63.5089 227.113 62.7615 227.468 62.0854 227.219L51.0177 223.234C50.6974 223.145 50.4483 222.913 50.306 222.629Z" fill="#084FC7"/>
<path d="M55.7154 237.593C56.0713 237.593 56.4272 237.753 56.6941 238.038C57.1745 238.572 57.1211 239.408 56.5873 239.888L47.7795 247.682C47.2457 248.162 46.4094 248.109 45.9289 247.575C45.4485 247.041 45.5019 246.205 46.0357 245.725L54.8436 237.931C55.0927 237.7 55.4129 237.593 55.7154 237.593Z" fill="#084FC7"/>
<path d="M71.6763 249.96C71.8898 250.244 72.0143 250.618 71.9432 250.992C71.8186 251.703 71.1425 252.184 70.4307 252.059L58.8471 250.084C58.1353 249.959 57.6549 249.283 57.7794 248.572C57.904 247.86 58.5802 247.379 59.2919 247.504L70.8755 249.479C71.1958 249.532 71.4805 249.71 71.6763 249.96Z" fill="#084FC7"/>
<path d="M81.3736 139.888C81.2846 139.55 81.3202 139.159 81.5337 138.838C81.9252 138.233 82.7437 138.055 83.3487 138.447L93.2242 144.817C93.8292 145.208 94.0071 146.027 93.6156 146.632C93.2242 147.237 92.4057 147.415 91.8007 147.023L81.9252 140.653C81.6405 140.457 81.4448 140.191 81.3736 139.888Z" fill="#084FC7"/>
<path d="M148.776 147.397C149.096 147.219 149.47 147.183 149.843 147.308C150.52 147.557 150.876 148.304 150.644 148.981L146.712 160.066C146.463 160.742 145.715 161.098 145.039 160.867C144.363 160.618 144.007 159.87 144.239 159.194L148.171 148.109C148.278 147.806 148.509 147.557 148.776 147.397Z" fill="#084FC7"/>
<path d="M143.491 132.966L137.424 140.76C136.979 141.329 136.16 141.436 135.591 140.991C135.022 140.546 134.915 139.728 135.36 139.159L140.911 132.041C141.801 132.326 142.673 132.646 143.491 132.966Z" fill="#084FC7"/>
<path d="M84.114 240.493C84.2385 240.867 84.5589 241.134 84.9147 241.205C85.0927 241.241 85.2884 241.241 85.4663 241.169C85.6621 241.098 104.683 234.942 124.684 243.234C134.844 247.451 143.883 249.052 151.196 248.91C151.232 248.483 151.267 248.091 151.303 247.7C151.303 247.646 151.321 247.593 151.321 247.557C151.321 247.557 151.73 247.29 152.442 246.792C145.253 247.148 136.054 245.618 125.502 241.258C104.737 232.646 85.5909 238.874 84.7902 239.141C84.2386 239.337 83.9361 239.942 84.114 240.493Z" fill="#084FC7"/>
<path d="M129.861 128.482C127.352 132.361 122.192 136.756 111.729 136.009C97.2987 134.959 87.7969 121.187 84.4873 115.529C84.9321 115.511 85.1813 115.511 85.1813 115.511L129.861 128.482Z" fill="#084FC7"/>
<path d="M114.523 154.034C114.95 154.123 115.377 154.176 115.804 154.212C119.79 154.532 123.029 153.376 125.413 150.778C132.353 143.198 129.506 125.902 129.381 125.173C129.274 124.586 128.723 124.194 128.153 124.301C127.566 124.408 127.175 124.959 127.281 125.529C127.317 125.707 130.075 142.522 123.847 149.337C121.908 151.454 119.328 152.361 116 152.095C102.014 150.974 86.3382 115.44 86.178 115.084C85.9467 114.55 85.3062 114.301 84.7724 114.532C84.2386 114.763 83.9894 115.404 84.2208 115.938C84.8257 117.415 99.7012 151.027 114.523 154.034Z" fill="white"/>
<path d="M158.082 140.066C157.157 150.315 159.683 167.237 166.303 179.408C166.142 176.792 166.071 174.141 166.107 171.507C166.107 171.418 166.107 171.329 166.107 171.241C166.107 170.974 166.125 170.707 166.125 170.44C166.356 154.906 167.868 147.023 158.082 140.066Z" fill="#EA9B7A"/>
<path d="M75.8575 158.109C70.7329 177.895 51.9784 193.767 39.167 188.821C39.0068 187.717 38.8645 186.596 38.7044 185.493C38.5976 184.764 38.4908 184.052 38.3663 183.322C37.5478 177.949 36.5869 172.557 35.5015 167.326C30.7506 144.514 34.0958 120.582 57.2097 117.753C58.8823 117.539 60.5371 117.361 62.1564 117.183C73.7044 122.112 81.765 135.333 75.8575 158.109Z" fill="#EA9B7A"/>
<path d="M78.4911 143.02L108.527 252.878L97.815 240.529C101.783 242.628 106.374 244.266 111.463 245.404C116.534 246.543 122.085 247.201 127.868 247.504C133.669 247.806 139.701 247.753 145.876 247.504C152.05 247.255 158.367 246.792 164.772 246.241H164.808C174.256 245.44 182.566 252.433 183.367 261.881C184.132 270.885 177.744 278.874 168.954 280.298C162.353 281.347 155.627 282.344 148.74 283.145C141.854 283.945 134.79 284.533 127.459 284.71C120.146 284.871 112.566 284.604 104.737 283.465C96.9253 282.326 88.8114 280.298 80.8754 276.863C75.8042 274.675 72.1921 270.511 70.5551 265.653L70.1814 264.515L34.1315 156.472C30.0746 144.336 36.6404 131.205 48.7757 127.148C60.9109 123.091 74.0427 129.657 78.0996 141.792C78.2598 142.183 78.3843 142.646 78.4911 143.02Z" fill="#EA9B7A"/>
<path d="M91.9428 249.372C91.6403 249.372 91.3378 249.212 91.1777 248.928C90.9286 248.5 91.0887 247.967 91.5157 247.718C91.8004 247.557 98.3663 243.856 105.235 243.323C105.733 243.287 106.16 243.643 106.196 244.141C106.231 244.639 105.875 245.066 105.377 245.102C98.9179 245.6 92.4588 249.23 92.4054 249.266C92.2453 249.337 92.0852 249.372 91.9428 249.372Z" fill="#D96C63"/>
<path d="M102.868 245.404C102.708 245.404 102.548 245.369 102.406 245.28C98.2598 242.771 93.242 242.379 93.1886 242.379C92.6904 242.344 92.3345 241.917 92.3701 241.436C92.4057 240.938 92.815 240.582 93.3132 240.618C93.5267 240.636 98.8114 241.027 103.313 243.767C103.74 244.016 103.865 244.568 103.616 244.995C103.456 245.244 103.153 245.404 102.868 245.404Z" fill="#D96C63"/>
<path d="M129.648 187.504C142.94 190.191 148.758 176.454 148.812 176.312C149.043 175.76 148.776 175.137 148.224 174.924C147.673 174.693 147.05 174.959 146.836 175.511C146.623 176.027 141.605 187.753 130.075 185.422C117.957 182.967 95.3595 159.141 95.146 158.892C94.7367 158.465 94.0605 158.447 93.6335 158.856C93.2064 159.265 93.1886 159.942 93.5979 160.369C94.5232 161.347 116.89 184.906 129.648 187.504Z" fill="#084FC7"/>
<path d="M108.758 100.973C108.758 100.973 87.4236 96.9521 81.4094 75.4218C75.6798 54.9235 80.0927 44.2829 86.0535 33.2153C90.5375 24.8701 104.772 13.6067 124.719 17.6459C144.861 21.7206 159.933 32.0765 162.157 48.6424C166.303 79.6389 141.303 117.45 108.758 100.973Z" fill="#39393B"/>
<path d="M82.4056 78.7491C82.0142 78.7491 81.6405 78.5534 81.4448 78.1797C81.0533 77.5035 72.0853 61.3647 79.5409 40.1191C84.2028 26.845 93.3665 20.9198 100.253 18.2685C107.69 15.4037 113.936 15.6884 114.203 15.6884C114.808 15.724 115.288 16.24 115.253 16.8628C115.217 17.4678 114.719 17.9482 114.096 17.9126C114.043 17.9126 107.975 17.6635 100.964 20.3681C91.6405 23.9802 85.1458 30.8664 81.6405 40.8486C74.5408 61.0978 83.2953 76.9164 83.3843 77.0765C83.6868 77.6103 83.5088 78.2864 82.975 78.5889C82.7793 78.6957 82.6014 78.7491 82.4056 78.7491Z" fill="#FAAF3A"/>
<path d="M150.129 79.0874C150.129 79.0874 157.068 73.6069 158.901 80.8667C160.734 88.1265 155.573 101.027 147.495 97.1123L150.129 79.0874Z" fill="#D96C63"/>
<path d="M143.349 92.4326C139.897 93.5714 136.855 96.6319 136.072 100.422C134.933 106.08 138.598 111.596 144.239 112.753C149.897 113.892 155.413 110.226 156.57 104.586C157.424 100.351 155.591 96.1871 152.228 93.8917C151.107 93.1088 149.808 92.5572 148.385 92.2725C148.349 92.2725 148.314 92.2547 148.278 92.2547C148.082 92.9664 148.154 93.5358 148.563 93.9807C149.702 94.2832 150.734 94.7992 151.641 95.4753C154.257 97.4682 155.662 100.831 154.969 104.265C154.008 109.034 149.328 112.13 144.559 111.169C139.791 110.208 136.694 105.529 137.655 100.76C138.367 97.2903 140.929 94.8348 144.15 94.0518L143.349 92.4326Z" fill="#FAAF3A"/>
<path d="M129.096 110.208L126.196 128.394C126.196 128.394 112.584 142.29 87.7261 117.362C94.3987 112.397 96.9432 100.867 96.1602 93.4291C96.1602 93.4291 98.1175 94.6035 101.142 97.3437C101.73 97.8775 102.495 98.2867 103.224 98.8028C109.79 103.251 119.861 109.07 129.096 110.208Z" fill="#EA9B7A"/>
<path d="M129.096 110.208L127.726 118.821C120.271 115.493 107.086 108.393 101.143 97.3258C101.783 97.7884 102.495 98.2689 103.224 98.7849C109.79 103.251 119.862 109.07 129.096 110.208Z" fill="#39393B"/>
<path d="M156.854 74.7103C156.463 76.632 156.107 78.4647 155.733 80.2085C155.342 82.0946 154.968 83.874 154.595 85.5466C151.837 98.1267 149.577 104.87 145.911 107.397C127.353 120.155 97.1568 94.3188 96.1781 93.4825C96.1603 93.4647 96.1603 93.4647 96.1603 93.4647C96.1425 91.9879 96.1425 90.511 96.1603 89.0697C96.3916 76.8277 98.4735 65.8312 101.783 55.671C103.438 44.5678 112.05 35.671 123.135 33.9984C134.63 32.2724 143.278 38.9272 148.687 41.8632C156.854 46.3116 160.057 58.6782 156.854 74.7103Z" fill="#EA9B7A"/>
<path d="M102.423 44.2474C102.423 44.2474 115.413 19.2652 141.32 26.2403C167.228 33.2154 168.598 45.2439 169.061 51.2581C169.523 57.2724 155.644 46.614 155.644 46.614C155.644 46.614 155.164 58.6425 150.537 54.9414C144.861 50.3862 138.527 40.5819 138.527 40.5819C138.527 40.5819 123.1 55.7421 108.438 51.6496C100.092 49.3364 102.423 44.2474 102.423 44.2474Z" fill="#39393B"/>
<path d="M134.239 99.2121C130.876 99.2121 128.562 96.8811 128.456 96.7566C128.1 96.3829 128.1 95.7957 128.473 95.4398C128.847 95.084 129.416 95.084 129.772 95.4576C129.897 95.5822 132.566 98.2334 136.089 97.0235C136.57 96.8633 137.103 97.1125 137.263 97.5929C137.424 98.0733 137.175 98.6071 136.694 98.7672C135.84 99.0875 135.021 99.2121 134.239 99.2121Z" fill="#D96C63"/>
<path d="M126.498 84.0875C126.498 84.0875 138.989 87.7886 145.466 87.7886C145.466 87.7886 142.228 97.0413 132.975 93.8029C125.769 91.2762 126.498 84.0875 126.498 84.0875Z" fill="white"/>
<path d="M149.683 58.0732C149.683 58.0732 146.445 57.7351 146.961 60.8846C147.495 64.0341 154.523 62.1123 158.011 68.4113C158.011 68.4113 161.374 61.8098 149.683 58.0732Z" fill="#39393B"/>
<path d="M135.253 55.1548C135.253 55.1548 138.367 56.1157 136.659 58.8025C134.951 61.4894 129.221 56.9876 123.563 61.436C123.563 61.436 123.047 54.0516 135.253 55.1548Z" fill="#39393B"/>
<path d="M129.63 77.6995C129.328 79.1764 126.036 79.7635 122.246 78.9984C118.474 78.2333 115.662 76.4183 115.965 74.9237C116.267 73.4468 119.559 72.8596 123.349 73.6248C127.121 74.3899 129.933 76.2226 129.63 77.6995Z" fill="#D96C63"/>
<path d="M166.498 78.6782L156.409 76.9522C156.356 77.3793 156.249 77.8063 156.16 78.2156C156.142 78.2867 156.124 78.3579 156.089 78.4291L166.249 80.1551C166.658 80.2262 167.05 79.9415 167.121 79.5323C167.192 79.1408 166.925 78.7494 166.498 78.6782Z" fill="white"/>
<path d="M139.559 70.0659C139.559 69.5499 139.541 69.0339 139.47 68.5357C139.132 65.7954 137.922 63.2687 136.071 61.3114C134.363 59.5143 132.139 58.1975 129.559 57.6281C129.523 57.6103 129.47 57.6103 129.434 57.5925C123.527 56.3826 117.708 59.4787 115.306 64.7456C115.092 65.2082 114.914 65.6709 114.754 66.1513C114.612 66.5783 114.505 67.0232 114.398 67.468C113.722 70.7776 114.381 74.0517 116.035 76.7207C116.605 77.6282 117.281 78.4645 118.046 79.194C119.719 80.8132 121.836 81.9876 124.274 82.4859C128.384 83.34 132.423 82.0944 135.324 79.4965C137.281 77.7527 138.722 75.3684 139.292 72.6104C139.292 72.5926 139.292 72.5926 139.292 72.5748C139.47 71.7385 139.559 70.9022 139.559 70.0659ZM124.594 81.009C124.523 80.9912 124.47 80.9912 124.416 80.9734C121.231 80.2616 118.651 78.2332 117.139 75.5819C115.84 73.2865 115.324 70.5463 115.893 67.7705C116.018 67.2011 116.178 66.6495 116.374 66.1157C116.391 66.0801 116.409 66.0445 116.409 66.009C117.993 61.8986 121.854 59.105 126.196 58.8559C127.157 58.8025 128.135 58.8559 129.132 59.0694C131.267 59.5143 133.117 60.5285 134.594 61.9342C137.299 64.5143 138.651 68.3933 137.851 72.3079C136.569 78.3577 130.644 82.2723 124.594 81.009Z" fill="white"/>
<path d="M162.174 64.8703C161.836 64.6923 161.48 64.5322 161.107 64.372C160.68 64.1941 160.235 64.0517 159.79 63.9094C159.47 63.8204 159.167 63.7315 158.829 63.6781C158.224 63.5535 157.637 63.4824 157.05 63.4468C156.338 63.3934 155.626 63.4112 154.932 63.5002C152.993 63.7137 151.16 64.3543 149.541 65.3685C147.762 66.4717 146.249 68.0197 145.217 69.8881C144.932 70.3685 144.701 70.8667 144.488 71.3649C144.47 71.4005 144.47 71.4183 144.452 71.4539C144.185 72.1301 143.972 72.8418 143.811 73.5714C142.797 78.4824 144.772 83.3223 148.491 86.2048C149.701 87.1479 151.089 87.8774 152.619 88.3223C152.851 88.3935 153.082 88.4646 153.331 88.5002C153.456 88.5358 153.562 88.5536 153.687 88.5892C154.915 88.8383 156.142 88.9095 157.335 88.8027C157.53 88.7849 157.726 88.7671 157.904 88.7493C158.42 88.6782 158.936 88.5892 159.452 88.4468C160.395 88.1977 161.32 87.8418 162.174 87.397C165.431 85.6888 167.922 82.5927 168.722 78.7137C169.879 73.0198 167.05 67.4326 162.174 64.8703ZM167.228 78.3934C167.174 78.6425 167.121 78.8739 167.05 79.1052C166.961 79.4433 166.854 79.7635 166.73 80.1016C165.84 82.4682 164.203 84.3899 162.139 85.6532C161.392 86.1159 160.573 86.4895 159.719 86.7742C159.185 86.9522 158.651 87.0767 158.082 87.1657C157.922 87.2013 157.762 87.2191 157.601 87.2369C156.427 87.3792 155.199 87.3436 153.972 87.0945C153.865 87.0767 153.74 87.0411 153.633 87.0234C153.562 87.0056 153.491 86.9878 153.438 86.97C151.641 86.5073 150.039 85.6176 148.74 84.4255C148.545 84.2475 148.367 84.0696 148.189 83.8917C145.715 81.3294 144.505 77.6105 145.27 73.856C145.448 73.0197 145.715 72.2012 146.053 71.4539C147.174 68.9984 149.132 67.0945 151.498 65.9735C152.957 65.2795 154.577 64.9058 156.249 64.9058C156.516 64.9058 156.783 64.9236 157.068 64.9414C157.548 64.977 158.029 65.0482 158.509 65.1372C158.865 65.2083 159.203 65.2973 159.541 65.4041C160.004 65.5464 160.448 65.7244 160.893 65.9201C161.231 66.0802 161.569 66.2582 161.908 66.4361C165.947 68.8026 168.224 73.5536 167.228 78.3934Z" fill="white"/>
<path d="M99.2206 67.0409C99.1316 67.0231 99.0426 66.9875 98.9715 66.9341C98.6156 66.7028 98.5266 66.2401 98.7401 65.9021C103.794 58.0017 115.947 65.1014 116.053 65.1725C116.409 65.3861 116.534 65.8487 116.32 66.2046C116.107 66.5605 115.644 66.685 115.288 66.4715C115.181 66.4003 104.274 60.048 100.004 66.7206C99.8434 66.9697 99.5231 67.0942 99.2206 67.0409Z" fill="white"/>
<path d="M145.022 71.792C144.826 71.7564 144.666 71.6319 144.541 71.4717C142.922 68.9806 139.47 70.1016 139.435 70.1016C139.043 70.2262 138.616 70.0127 138.492 69.6212C138.367 69.2297 138.58 68.8027 138.972 68.6781C140.556 68.1443 144.025 67.8774 145.823 70.6532C146.054 71.0091 145.947 71.4717 145.591 71.6852C145.413 71.792 145.218 71.8276 145.022 71.792Z" fill="white"/>
<g opacity="0.8">
<g opacity="0.8">
<g opacity="0.8">
<g opacity="0.8">
<g opacity="0.8">
<g opacity="0.8">
<g opacity="0.8">
<path opacity="0.8" d="M155.734 80.2083C155.342 82.0944 154.968 83.8738 154.595 85.5464C151.161 84.7101 148.687 83.0197 148.972 81.614C149.274 80.2261 152.228 79.6211 155.734 80.2083Z" fill="#D96C63"/>
</g>
</g>
</g>
</g>
</g>
</g>
</g>
<path d="M132.281 70.2439C131.872 72.2901 130.609 73.7492 129.47 73.5179C128.331 73.2866 127.744 71.4538 128.153 69.4076C128.562 67.3613 129.826 65.9022 130.965 66.1335C132.103 66.3649 132.691 68.1976 132.281 70.2439Z" fill="#39393B"/>
<path d="M152.459 74.3365C152.05 76.3827 150.787 77.8418 149.648 77.6105C148.509 77.3792 147.922 75.5464 148.331 73.5002C148.741 71.4539 150.004 69.9948 151.143 70.2261C152.282 70.4575 152.869 72.2902 152.459 74.3365Z" fill="#39393B"/>
<path d="M142.032 79.8167C143.011 80.0124 143.705 79.9768 143.758 79.9768C143.989 79.959 144.221 79.8523 144.381 79.6743C144.541 79.4964 144.594 79.2473 144.577 79.016L143.278 69.4963C143.206 69.0337 142.779 68.6956 142.317 68.7668C141.854 68.838 141.516 69.265 141.587 69.7277L142.744 78.2153C141.89 78.0907 140.609 77.7348 139.452 76.7739C139.096 76.4715 138.545 76.5249 138.242 76.8807C137.94 77.2366 137.993 77.7882 138.349 78.0907C139.612 79.1227 140.982 79.6031 142.032 79.8167Z" fill="#39393B"/>
<path d="M104.506 86.543C104.363 86.7566 100.413 92.4327 96.196 93.4648C96.1783 93.447 96.1783 93.447 96.1783 93.447C96.1427 91.9701 96.1605 90.4932 96.1783 89.0519C96.3206 89.0697 100.342 89.1765 104.506 86.543Z" fill="#39393B"/>
<path d="M103.634 71.6317C103.634 71.6317 97.6906 59.0338 89.986 66.4182C83.6337 72.5214 89.1853 92.8773 100.217 88.5179L103.634 71.6317Z" fill="#EA9B7A"/>
<path d="M89.0251 82.5037C85.5731 83.6425 82.5304 86.703 81.7475 90.493C80.6087 96.1514 84.2742 101.667 89.9147 102.824C95.5731 103.963 101.089 100.297 102.246 94.6567C103.1 90.4218 101.267 86.2581 97.9041 83.9628C96.7831 83.1798 95.4842 82.6282 94.0607 82.3435C94.0251 82.3435 93.9895 82.3257 93.9539 82.3257C93.7582 83.0375 93.8471 83.6069 94.2386 84.0517C95.3774 84.3542 96.4094 84.8702 97.3169 85.5464C99.9326 87.5393 101.338 90.9023 100.644 94.3365C99.6835 99.1052 95.0037 102.201 90.235 101.24C85.4663 100.28 82.3702 95.5998 83.3311 90.8311C84.0251 87.3613 86.6051 84.9058 89.8258 84.1229L89.0251 82.5037Z" fill="#FAAF3A"/>
<path d="M99.7545 85.0128C99.7901 85.0128 99.8079 85.0305 99.8435 85.0305C100.306 85.0661 100.733 84.7281 100.769 84.2477C101.641 74.7281 94.452 69.906 94.1495 69.7102C93.758 69.4433 93.2242 69.5679 92.9573 69.9594C92.6904 70.3508 92.815 70.8846 93.2064 71.1515C93.4733 71.3295 99.8435 75.6355 99.0605 84.1053C99.0427 84.5323 99.3452 84.9238 99.7545 85.0128Z" fill="#39393B"/>
<path d="M92.9576 78.3401C93.1355 78.3757 93.3491 78.3579 93.527 78.2511C94.3811 77.8063 96.89 76.8098 98.2601 77.4682C98.6872 77.6817 99.2032 77.5038 99.3989 77.0767C99.6124 76.6497 99.4345 76.1336 99.0074 75.9379C96.6231 74.7813 93.1355 76.5429 92.7441 76.7386C92.317 76.9522 92.1569 77.4682 92.3882 77.8952C92.495 78.1265 92.7263 78.2867 92.9576 78.3401Z" fill="#39393B"/>
<path d="M111.285 50.2617C111.285 50.2617 103.296 71.9521 102.869 76.3293C102.281 82.2902 94.3988 61.8631 102.317 44.4254L111.285 50.2617Z" fill="#39393B"/>
<path d="M244.773 510.121H211.872C211.872 510.121 204.257 473.608 201.712 453.145C199.15 432.665 197.833 384.142 197.833 384.142C197.833 384.142 171.623 392.665 116.747 389.444C-4.83651 382.344 41.2668 293.02 41.2668 293.02C45.3771 298.696 76.1957 306.508 93.3844 309.23C146.178 314.302 186.303 323.27 213.776 335.12C220.395 337.967 226.267 340.992 231.427 344.177C238.047 348.252 242.193 360.654 244.702 376.935C252.193 425.885 244.773 510.121 244.773 510.121Z" fill="#39393B"/>
<path d="M215.947 492.541C215.395 492.541 214.915 492.149 214.79 491.598C210.039 468.11 208.456 438.875 207.175 415.387C206.107 395.903 205.111 377.505 202.602 375.298C200.573 373.501 192.157 374.907 181.516 376.668C160.324 380.192 128.295 385.494 92.9927 377.291C73.7578 372.807 59.6119 363.466 50.9642 349.515C36.0353 325.458 42.8503 295.618 42.9214 295.316C43.0638 294.675 43.7044 294.284 44.3449 294.444C44.9855 294.586 45.377 295.227 45.2168 295.867C45.1456 296.152 38.5798 325.067 52.9926 348.288C61.3023 361.686 74.95 370.672 93.5443 374.996C128.402 383.11 160.146 377.843 181.16 374.355C193.74 372.273 201.338 371.01 204.203 373.537C207.299 376.277 208.171 389.729 209.559 415.263C210.84 438.679 212.424 467.807 217.139 491.135C217.264 491.775 216.854 492.398 216.214 492.523C216.107 492.523 216.036 492.541 215.947 492.541Z" fill="#585859"/>
<path d="M245.395 493.145H245.377L208.794 492.362C208.135 492.344 207.619 491.811 207.637 491.152C207.655 490.494 208.189 489.978 208.847 489.996L245.431 490.779C246.089 490.796 246.605 491.33 246.587 491.989C246.552 492.647 246.036 493.145 245.395 493.145Z" fill="#585859"/>
<path d="M243.866 552.274H220.645L216.179 525.032L213.723 510.121H242.567L243.029 525.032L243.866 552.274Z" fill="#EA9B7A"/>
<path d="M243.865 552.274H220.644L217.317 531.989L216.178 525.032H243.029L243.242 532.238L243.865 552.274Z" fill="#FAAF3A"/>
<path d="M243.242 532.238L217.317 531.989L216.178 525.032H243.029L243.242 532.238Z" fill="#C77E2E"/>
<path d="M301.161 588.946H213.331C212.673 587.754 212.317 586.082 212.175 584.071C211.623 576.633 213.99 564.783 215.146 557.309C215.289 556.437 215.413 555.619 215.502 554.889C215.662 553.644 215.769 552.594 215.769 551.829C215.769 545.726 221.161 546.776 221.161 546.776C230.04 555.494 240.111 542.434 245.983 546.704C245.983 546.704 246.214 546.882 246.766 547.292C247.264 547.683 248.011 548.288 249.043 549.16C250.538 550.405 252.638 552.22 255.485 554.783C262.46 561.064 274.31 565.192 284.399 569.409C285.68 569.943 286.873 570.477 287.994 571.028C288.83 571.438 289.631 571.847 290.378 572.238C298.634 576.687 301.25 580.957 301.855 584.053C302.442 587.025 301.161 588.946 301.161 588.946Z" fill="#0875F7"/>
<path d="M290.396 572.256C288.136 574.053 283.1 577.665 279.061 577.665C278.883 577.665 278.705 577.665 278.527 577.647C275.68 577.416 265.218 572.274 256.694 567.594C251.819 564.907 247.353 562.274 244.15 560.156C238.901 556.687 237.976 555.37 237.78 554.445C237.015 550.975 242.744 548.573 246.766 547.309C247.264 547.701 248.011 548.306 249.043 549.178C244.061 550.53 239.951 552.665 240.146 553.875C240.645 554.907 245.84 558.857 258.26 565.672C267.744 570.868 276.73 575.05 278.723 575.228C281.428 575.441 285.396 572.986 287.993 571.046C288.865 571.437 289.648 571.847 290.396 572.256Z" fill="#084FC7"/>
<path d="M301.161 588.946H213.331C212.673 587.754 212.317 586.082 212.175 584.071H301.873C302.442 587.025 301.161 588.946 301.161 588.946Z" fill="#084FC7"/>
<path d="M222.3 588.946H219.684C222.282 585.975 224.719 581.402 224.399 574.889C223.972 566.206 218.776 560.37 215.146 557.309C215.289 556.437 215.413 555.619 215.502 554.889C219.399 557.861 225.965 564.391 226.481 574.783C226.801 581.01 224.755 585.655 222.3 588.946Z" fill="#084FC7"/>
<path d="M254.026 559.978C253.385 559.978 252.78 559.534 252.62 558.875C252.424 558.092 252.905 557.309 253.67 557.114L259.15 555.744C259.933 555.548 260.716 556.028 260.912 556.793C261.107 557.576 260.627 558.359 259.862 558.555L254.381 559.925C254.257 559.961 254.132 559.978 254.026 559.978Z" fill="white"/>
<path d="M248.563 555.405C247.904 555.405 247.317 554.96 247.157 554.302C246.961 553.519 247.442 552.736 248.207 552.541L253.687 551.17C254.47 550.975 255.253 551.455 255.449 552.22C255.645 553.003 255.164 553.786 254.399 553.982L248.919 555.352C248.794 555.388 248.687 555.405 248.563 555.405Z" fill="white"/>
<path d="M259.506 563.163C258.866 563.163 258.261 562.719 258.1 562.06C257.905 561.277 258.385 560.494 259.15 560.317L264.631 558.946C265.414 558.751 266.196 559.231 266.392 559.996C266.588 560.779 266.108 561.562 265.342 561.758L259.862 563.128C259.737 563.146 259.613 563.163 259.506 563.163Z" fill="white"/>
<path d="M264.987 566.224C264.346 566.224 263.741 565.779 263.581 565.121C263.385 564.338 263.866 563.555 264.631 563.377L270.111 562.007C270.894 561.811 271.677 562.292 271.873 563.057C272.068 563.84 271.588 564.623 270.823 564.818L265.342 566.188C265.218 566.206 265.111 566.224 264.987 566.224Z" fill="white"/>
<path d="M270.965 569.053C270.325 569.053 269.72 568.608 269.559 567.95C269.364 567.167 269.844 566.384 270.609 566.206L276.09 564.836C276.873 564.64 277.656 565.121 277.851 565.886C278.047 566.669 277.567 567.452 276.801 567.647L271.321 569.018C271.196 569.053 271.09 569.053 270.965 569.053Z" fill="white"/>
<path d="M277.46 571.473C276.801 571.473 276.214 571.028 276.054 570.37C275.858 569.587 276.339 568.804 277.104 568.608L282.584 567.238C283.367 567.042 284.15 567.523 284.346 568.288C284.542 569.071 284.061 569.854 283.296 570.05L277.816 571.42C277.691 571.455 277.566 571.473 277.46 571.473Z" fill="white"/>
</svg>
