<svg width="83" height="200" viewBox="0 0 83 200" fill="none" xmlns="http://www.w3.org/2000/svg">
<path d="M44.5543 100.956C44.5543 100.956 0.621777 72.5222 0.568396 33.9456C0.515015 -4.63105 59.1273 -10.1826 77.6505 17.8957C97.4904 47.9492 44.5543 100.956 44.5543 100.956Z" fill="#21B573"/>
<path d="M38.4153 199.729C38.3441 199.729 38.273 199.729 38.2018 199.711C37.7036 199.587 37.4011 199.089 37.5078 198.59C45.2659 165.868 44.5719 114.053 42.6324 76.3658C40.5328 35.4938 36.5292 1.93501 36.4936 1.61472C36.4402 1.0987 36.7961 0.636067 37.3121 0.582686C37.8103 0.529305 38.2907 0.88519 38.3441 1.40121C38.3797 1.73928 42.3833 35.3515 44.5007 76.2769C46.458 114.088 47.1341 166.081 39.3405 199.017C39.216 199.444 38.8424 199.729 38.4153 199.729Z" fill="#39393B"/>
<path d="M44.394 97.0951C43.9314 97.0951 43.5221 96.7392 43.4687 96.2766C38.1306 49.3725 15.6217 7.91338 15.3904 7.50413C15.1413 7.05929 15.3013 6.48988 15.764 6.24077C16.2088 5.99166 16.7783 6.15181 17.0274 6.61445C17.2587 7.0237 39.9456 48.8032 45.3193 96.0809C45.3727 96.5969 45.0168 97.0595 44.5008 97.1129C44.4652 97.0951 44.4296 97.0951 44.394 97.0951Z" fill="#39393B"/>
<path d="M44.2341 100.227C43.8426 100.227 43.4868 99.9778 43.3622 99.5863C35.3373 75.7428 24.2519 58.5008 16.3693 48.2339C7.82835 37.095 1.10236 31.5434 1.03119 31.49C0.639729 31.1697 0.568541 30.5826 0.906621 30.1911C1.22691 29.7996 1.81406 29.7285 2.20552 30.0665C2.49022 30.2979 9.12727 35.7783 17.7928 47.0595C25.7821 57.451 36.9922 74.8887 45.1061 98.9991C45.2662 99.4795 45.0171 100.013 44.5189 100.173C44.4299 100.209 44.3409 100.227 44.2341 100.227Z" fill="#39393B"/>
<path d="M44.0735 88.4297C44.0558 88.4297 44.0379 88.4297 44.0201 88.4297C43.5041 88.4119 43.1127 87.9671 43.1482 87.4511C45.1233 48.6965 65.9419 8.92774 66.1376 8.51849C66.3867 8.05586 66.9384 7.89571 67.401 8.12703C67.8636 8.35835 68.0238 8.92775 67.7925 9.39039C67.579 9.78185 46.9561 49.1947 45.0166 87.54C44.981 88.0383 44.5718 88.4297 44.0735 88.4297Z" fill="#39393B"/>
<path d="M44.305 96.3479C44.2338 96.3479 44.1804 96.3479 44.1093 96.3301C43.6111 96.2234 43.2907 95.7251 43.3975 95.2269C48.4509 72.202 58.2374 55.5471 65.5684 45.6183C73.5222 34.8353 80.177 29.5862 80.4617 29.3727C80.8709 29.0524 81.4581 29.1235 81.7606 29.5328C82.0809 29.9421 82.0096 30.5292 81.6004 30.8317C81.5292 30.8851 74.8211 36.1876 67.0097 46.7748C59.8033 56.5436 50.1769 72.9493 45.2125 95.6184C45.1235 96.0632 44.732 96.3479 44.305 96.3479Z" fill="#39393B"/>
</svg>
