<svg width="12" height="20" viewBox="0 0 12 20" fill="none" xmlns="http://www.w3.org/2000/svg">
<path d="M5.43236 15.0871H6.43232C7.74398 15.0871 8.8089 14.0081 8.8089 12.7081V2.4381C8.8089 1.1251 7.73099 0.059082 6.43232 0.059082H5.43236C4.12071 0.059082 3.05578 1.1381 3.05578 2.4381V12.7081C3.04279 14.0081 4.12071 15.0871 5.43236 15.0871Z" fill="white"/>
<path d="M5.82211 18.6492H6.0299C6.30262 18.6492 6.5234 18.4281 6.5234 18.1551V12.0712C6.5234 11.7982 6.30262 11.5771 6.0299 11.5771H5.82211C5.54939 11.5771 5.32861 11.7982 5.32861 12.0712V18.1551C5.3416 18.4281 5.56238 18.6492 5.82211 18.6492Z" fill="white"/>
<path d="M1.15975 19.1952H10.692C11.2504 19.1952 11.7179 18.7402 11.7179 18.1682V17.7392C11.7179 17.1802 11.2634 16.7122 10.692 16.7122H1.15975C0.60132 16.7122 0.133789 17.1802 0.133789 17.7392V18.1682C0.133789 18.7272 0.60132 19.1952 1.15975 19.1952Z" fill="white"/>
</svg>
