<svg width="131" height="138" viewBox="0 0 131 138" fill="none" xmlns="http://www.w3.org/2000/svg">
<path d="M39.6554 14.8671L65.6874 110.063L56.3992 99.369C59.8333 101.202 63.8191 102.607 68.2141 103.586C72.6092 104.583 77.4135 105.152 82.4313 105.401C87.4491 105.668 92.6804 105.615 98.0363 105.401C103.392 105.17 108.855 104.778 114.406 104.298H114.442C122.627 103.604 129.834 109.672 130.527 117.857C131.186 125.668 125.652 132.572 118.054 133.818C112.325 134.725 106.506 135.597 100.545 136.291C94.5665 136.985 88.4455 137.501 82.111 137.643C75.7765 137.786 69.2106 137.536 62.4134 136.558C55.634 135.579 48.6056 133.8 41.7372 130.846C37.3422 128.942 34.2105 125.348 32.787 121.131L32.4489 120.134L1.22108 26.5219C-2.28427 16.0058 3.3919 4.61791 13.9257 1.11256C24.4418 -2.39279 35.8297 3.28338 39.3351 13.8172C39.4418 14.1375 39.5664 14.529 39.6554 14.8671Z" fill="#EA9B7A"/>
</svg>
