<svg width="28" height="15" viewBox="0 0 28 15" fill="none" xmlns="http://www.w3.org/2000/svg">
<path d="M27.3557 11.1482C26.7454 5.68821 22.265 1.2682 16.6807 0.657199C12.3432 0.176199 7.31732 -0.00579825 3.43431 0.904202C2.38239 1.1512 1.40839 1.4762 0.55127 1.9182L0.77204 2.91921C3.79793 1.29421 9.22637 0.839191 16.5638 1.64519C18.9144 1.90519 21.0572 2.8932 22.7455 4.3752C24.4208 5.8572 25.6415 7.8202 26.161 10.0432C26.2519 10.4462 26.3298 10.8492 26.3688 11.2652C26.3947 11.5122 26.4207 11.7592 26.4207 11.9932L27.4077 11.7202C27.3947 11.5122 27.3687 11.3302 27.3557 11.1482ZM5.10958 11.5122C4.34337 12.0582 3.61613 12.5132 2.92783 12.8642L3.13562 13.8782C3.9408 13.4752 4.79792 12.9552 5.694 12.3182C9.90168 9.2762 12.6678 11.7982 15.6158 14.4762C15.7457 14.5932 15.8755 14.7232 16.0054 14.8402L17.1352 14.5282C16.8495 14.2682 16.5638 14.0082 16.2781 13.7482C13.3301 11.0702 9.9666 8.00221 5.10958 11.5122Z" fill="#A92F4B"/>
</svg>
