<svg width="502" height="321" viewBox="0 0 502 321" fill="none" xmlns="http://www.w3.org/2000/svg">
<path d="M501.915 16.3032V305.592C501.915 314.068 495.045 320.945 486.578 320.945H15.9672C7.49985 320.945 0.629883 314.068 0.629883 305.592V16.3032C0.629883 7.82719 7.49985 0.950195 15.9672 0.950195H486.578C486.812 0.950195 487.033 0.950198 487.253 0.963198C487.422 0.976198 487.591 0.976194 487.747 0.989194H487.76C487.877 1.00219 487.994 1.00219 488.11 1.02819C488.305 1.04119 488.5 1.0672 488.708 1.0932C488.838 1.1062 488.968 1.1322 489.097 1.1582C489.162 1.1712 489.214 1.1712 489.279 1.1842C489.409 1.1972 489.526 1.22319 489.656 1.26219C496.656 2.69219 501.915 8.88019 501.915 16.3032Z" fill="white"/>
</svg>
