<svg width="39" height="70" viewBox="0 0 39 70" fill="none" xmlns="http://www.w3.org/2000/svg">
<path d="M11.5194 7.9943L4.57178 9.05841L12.6025 61.4913L19.5501 60.4271L11.5194 7.9943Z" fill="#FAAF3A"/>
<path d="M11.5333 7.9667L4.59375 9.03433L6.124 3.73181L6.90693 0.973816L8.49056 3.35816L11.5333 7.9667Z" fill="#EA9B7A"/>
<path d="M18.9599 56.6103L12.0122 57.6744L12.5968 61.4912L19.5445 60.4271L18.9599 56.6103Z" fill="#39393B"/>
<path d="M19.5765 63.5008L13.5444 64.4261C13.2953 64.4617 13.0462 64.2837 13.0106 64.0346L12.6191 61.4545L19.5765 60.3869L19.9679 62.967C20.0035 63.2339 19.8256 63.4652 19.5765 63.5008Z" fill="#DF615C"/>
<path d="M8.49107 3.35816L6.12451 3.73181L6.90744 0.973816L8.49107 3.35816Z" fill="#39393B"/>
<path d="M18.5668 53.8706L11.6191 54.9348L12.0367 57.661L18.9844 56.5969L18.5668 53.8706Z" fill="#C77E2E"/>
<path d="M6.71183 11.3474L12.6549 50.1732C12.7083 50.4757 12.9752 50.6714 13.2599 50.618C13.5446 50.5646 13.7581 50.2977 13.7047 50.013L7.76165 11.1873C7.70827 10.9026 7.44137 10.6891 7.15667 10.7425C6.87197 10.7781 6.65845 11.0627 6.71183 11.3474Z" fill="#C77E2E"/>
<path d="M9.43448 10.9381L15.3776 49.7638C15.4309 50.0485 15.6978 50.262 15.9825 50.2086C16.285 50.1552 16.4808 49.8883 16.4274 49.6036L10.4843 10.7779C10.4309 10.4932 10.164 10.2797 9.87933 10.3331C9.59463 10.3687 9.3811 10.6356 9.43448 10.9381Z" fill="#C77E2E"/>
<path d="M24.1164 8.20626L17.0879 8.22937L17.2623 61.2722L24.2908 61.2491L24.1164 8.20626Z" fill="#21B573"/>
<path d="M24.1139 8.21571L17.0854 8.23352L19.3808 3.2157L20.573 0.600037L21.783 3.19792L24.1139 8.21571Z" fill="#EA9B7A"/>
<path d="M24.2687 57.4061L17.2402 57.4292L17.2529 61.2904L24.2814 61.2673L24.2687 57.4061Z" fill="#39393B"/>
<path d="M23.829 64.3191L17.7258 64.3369C17.4589 64.3369 17.2632 64.1234 17.2632 63.8743V61.2764L24.2917 61.2586V63.8565C24.2917 64.1056 24.0959 64.3191 23.829 64.3191Z" fill="#DF615C"/>
<path d="M21.783 3.19792L19.3809 3.2157L20.573 0.600037L21.783 3.19792Z" fill="#39393B"/>
<path d="M24.2526 54.6302L17.2241 54.6534L17.2332 57.4113L24.2617 57.3882L24.2526 54.6302Z" fill="#217C58"/>
<path d="M18.8291 10.8493L18.9537 50.1198C18.9537 50.4223 19.2028 50.6536 19.4875 50.6536C19.79 50.6536 20.0213 50.4045 20.0213 50.1198L19.8967 10.8493C19.8967 10.5468 19.6476 10.3155 19.3629 10.3155C19.0782 10.2977 18.8291 10.5468 18.8291 10.8493Z" fill="#217C58"/>
<path d="M21.5874 10.8314L21.712 50.1019C21.712 50.4044 21.9611 50.6358 22.2458 50.6358C22.5483 50.6358 22.7796 50.3866 22.7796 50.1019L22.655 10.8314C22.655 10.5289 22.4059 10.2975 22.1212 10.2975C21.8365 10.2975 21.5874 10.5289 21.5874 10.8314Z" fill="#217C58"/>
<path d="M29.3011 7.94352L21.8433 60.4612L28.8022 61.4495L36.26 8.93173L29.3011 7.94352Z" fill="#0875F7"/>
<path d="M36.2493 8.96318L29.292 7.96674L32.2813 3.3226L33.8472 0.920471L34.6657 3.66068L36.2493 8.96318Z" fill="#EA9B7A"/>
<path d="M29.3617 57.6745L22.4028 56.6863L21.8599 60.5092L28.8189 61.4975L29.3617 57.6745Z" fill="#39393B"/>
<path d="M27.9041 64.4437L21.8721 63.5897C21.6229 63.5541 21.445 63.3227 21.4806 63.0558L21.8543 60.4758L28.8116 61.4722L28.4379 64.0523C28.3845 64.3014 28.1532 64.4793 27.9041 64.4437Z" fill="#DF615C"/>
<path d="M34.6656 3.66068L32.2812 3.3226L33.8471 0.920471L34.6656 3.66068Z" fill="#39393B"/>
<path d="M22.7801 53.9251L22.3921 56.6558L29.351 57.6447L29.7391 54.914L22.7801 53.9251Z" fill="#084FC7"/>
<path d="M30.6442 10.796L25.1282 49.6751C25.0926 49.9776 25.2883 50.2445 25.5908 50.2801C25.8933 50.3157 26.1602 50.1199 26.1958 49.8175L31.7118 10.9384C31.7474 10.6359 31.5517 10.369 31.2492 10.3334C30.9645 10.2978 30.6976 10.5113 30.6442 10.796Z" fill="#084FC7"/>
<path d="M33.3844 11.1876L27.8684 50.0667C27.8328 50.3692 28.0286 50.6361 28.3311 50.6717C28.6336 50.7073 28.9005 50.5115 28.936 50.209L34.4521 11.33C34.4877 11.0275 34.2919 10.7605 33.9894 10.7249C33.6869 10.6893 33.42 10.8851 33.3844 11.1876Z" fill="#084FC7"/>
<path d="M38.5447 29.1944L38.171 32.0414L37.8329 34.6215L37.3347 38.536L36.9966 41.0983L36.4984 45.0485L36.1603 47.5752L35.6443 51.561L35.324 54.0521L34.808 58.0735L34.4877 60.529L33.9717 64.5859L33.6514 67.0059L33.3845 69.1055H5.73318L5.46629 67.0059L5.146 64.5859L4.62998 60.529L4.3097 58.0735L3.79368 54.0521L3.4734 51.561L2.95738 47.5752L2.63709 45.0485L2.12107 41.0983L1.80079 38.536L1.28477 34.6215L0.946701 32.0414L0.59082 29.1944H38.5447Z" fill="#DF615C"/>
<path d="M38.1711 32.0412L37.833 34.6213H1.28485L0.946777 32.0412H38.1711Z" fill="#B11722"/>
<path d="M37.3347 38.5362L36.9966 41.0985H2.12107L1.80078 38.5362H37.3347Z" fill="#B11722"/>
<path d="M36.4985 45.0488L36.1604 47.5755H2.95749L2.63721 45.0488H36.4985Z" fill="#B11722"/>
<path d="M35.6445 51.5609L35.3243 54.052H3.79392L3.47363 51.5609H35.6445Z" fill="#B11722"/>
<path d="M34.8079 58.0734L34.4876 60.5289H4.62986L4.30957 58.0734H34.8079Z" fill="#B11722"/>
<path d="M33.9717 64.5861L33.6514 67.006H5.46628L5.146 64.5861H33.9717Z" fill="#B11722"/>
</svg>
