<svg width="97" height="102" viewBox="0 0 97 102" fill="none" xmlns="http://www.w3.org/2000/svg">
<path d="M48.7027 101.495C75.3539 101.495 96.959 80.1606 96.959 53.8435C96.959 27.5264 75.3539 6.19214 48.7027 6.19214C22.0514 6.19214 0.446289 27.5264 0.446289 53.8435C0.446289 80.1606 22.0514 101.495 48.7027 101.495Z" fill="#CED3E6"/>
<path d="M48.7027 95.3027C75.3539 95.3027 96.959 73.9685 96.959 47.6514C96.959 21.3342 75.3539 0 48.7027 0C22.0514 0 0.446289 21.3342 0.446289 47.6514C0.446289 73.9685 22.0514 95.3027 48.7027 95.3027Z" fill="#0875F7"/>
<path d="M48.7026 86.3882C70.3616 86.3882 87.9198 69.0452 87.9198 47.6514C87.9198 26.2577 70.3616 8.91467 48.7026 8.91467C27.0435 8.91467 9.48535 26.2577 9.48535 47.6514C9.48535 69.0452 27.0435 86.3882 48.7026 86.3882Z" fill="white"/>
<path d="M87.9197 47.6514C87.9197 48.6835 87.8841 49.6977 87.7951 50.7119C86.2115 30.7831 69.2719 15.0357 48.6847 15.0357C28.0974 15.0357 11.1757 30.7831 9.57425 50.7119C9.50307 49.6977 9.44971 48.6835 9.44971 47.6514C9.44971 26.2813 27.0476 8.91467 48.6669 8.91467C70.3217 8.91467 87.9197 26.2813 87.9197 47.6514Z" fill="#CED3E6"/>
<path d="M48.7025 51.6727C48.4 51.6727 48.0975 51.5304 47.9196 51.2812L28.6847 25.694C28.3644 25.2669 28.4534 24.662 28.8804 24.3417C29.3075 24.0214 29.9302 24.1103 30.2505 24.5374L49.0228 49.5019L70.3574 40.2492C70.8556 40.0357 71.425 40.2492 71.6563 40.7474C71.8698 41.2456 71.6563 41.815 71.1581 42.0285L49.1118 51.5837C48.9694 51.6549 48.8271 51.6727 48.7025 51.6727Z" fill="#39393B"/>
</svg>
