<svg width="300" height="422" viewBox="0 0 300 422" fill="none" xmlns="http://www.w3.org/2000/svg">
<path d="M199.708 101.952L199.916 102.94L200.072 103.733L200.344 105.228C200.513 106.203 200.669 107.152 200.812 108.101C201.085 109.999 201.318 111.858 201.526 113.717C201.929 117.435 202.227 121.114 202.396 124.806C202.565 128.485 202.617 132.164 202.578 135.843C202.526 139.522 202.37 143.188 202.124 146.854C201.864 150.52 201.487 154.186 201.033 157.839C200.773 159.659 200.539 161.492 200.24 163.312C200.098 164.222 199.955 165.132 199.799 166.042L199.292 168.759C199.137 169.669 198.929 170.566 198.747 171.476C198.552 172.373 198.383 173.283 198.163 174.18C197.747 175.974 197.344 177.781 196.864 179.575C196.63 180.472 196.409 181.369 196.163 182.253L195.409 184.931L195.215 185.594L195.124 185.932L194.929 186.608C194.734 187.245 194.539 187.791 194.319 188.35C194.111 188.87 193.89 189.403 193.669 189.871C193.448 190.365 193.215 190.794 192.981 191.236L192.643 191.847C192.526 192.055 192.41 192.25 192.293 192.432L191.942 193.004L191.604 193.537C191.371 193.901 191.15 194.213 190.916 194.538C190.007 195.812 189.111 196.878 188.241 197.853C187.371 198.828 186.527 199.686 185.682 200.492C184.007 202.104 182.384 203.469 180.786 204.756C177.592 207.304 174.462 209.449 171.332 211.451C165.099 215.442 158.904 218.887 152.67 222.124C146.45 225.361 140.19 228.351 133.905 231.211C130.749 232.628 127.593 234.019 124.424 235.371C122.84 236.047 121.256 236.723 119.658 237.386L117.243 238.361L114.762 239.349L103.879 214.727L105.996 213.648L108.165 212.517L112.516 210.242C115.412 208.708 118.308 207.161 121.165 205.575C126.905 202.442 132.58 199.205 138.099 195.903C140.852 194.252 143.567 192.549 146.216 190.846C148.865 189.143 151.45 187.401 153.891 185.633C156.333 183.865 158.657 182.071 160.631 180.329C161.618 179.458 162.514 178.6 163.228 177.846C163.93 177.092 164.462 176.39 164.566 176.156C164.566 176.143 164.592 176.104 164.579 176.104C164.566 176.117 164.566 176.117 164.553 176.13L164.514 176.169C164.501 176.195 164.488 176.208 164.475 176.234C164.423 176.299 164.41 176.351 164.345 176.468C164.306 176.559 164.228 176.689 164.176 176.832C164.099 177.001 164.047 177.157 163.969 177.378L163.917 177.534C163.904 177.586 163.917 177.534 163.917 177.521L163.93 177.456L163.995 177.183L164.125 176.624L164.631 174.414C164.8 173.673 164.943 172.932 165.099 172.191C165.423 170.709 165.67 169.214 165.943 167.719C166.086 166.978 166.189 166.224 166.306 165.47C166.423 164.716 166.553 163.975 166.644 163.221C167.086 160.218 167.423 157.189 167.696 154.147C167.956 151.105 168.124 148.063 168.254 145.008C168.358 141.953 168.384 138.898 168.332 135.856C168.293 132.801 168.163 129.759 167.956 126.717C167.761 123.688 167.488 120.672 167.124 117.695C166.943 116.213 166.735 114.744 166.514 113.314C166.41 112.599 166.293 111.897 166.176 111.208L165.995 110.22L165.852 109.518L199.708 101.952Z" fill="#EA9B7A"/>
<path d="M163.514 110.337L157.333 157.267C166.566 162.441 175.319 166.146 183.371 167.615L163.514 110.337Z" fill="#A92F4B"/>
<path d="M176.644 182.89C176.514 182.89 176.371 182.864 176.254 182.786C171.449 180.173 164.839 177.976 164.774 177.95C164.345 177.807 164.112 177.339 164.254 176.91C164.397 176.481 164.865 176.247 165.293 176.39C165.566 176.481 172.111 178.652 177.046 181.343C177.449 181.564 177.592 182.058 177.371 182.461C177.215 182.734 176.942 182.89 176.644 182.89Z" fill="#D46A43"/>
<path d="M165.488 178.145C165.073 178.145 164.722 177.833 164.67 177.417C164.618 176.962 164.943 176.559 165.397 176.507C168.813 176.13 173.293 176.104 173.475 176.104C173.929 176.104 174.293 176.468 174.293 176.923C174.293 177.378 173.929 177.742 173.475 177.755C173.423 177.755 168.891 177.781 165.566 178.145C165.553 178.145 165.514 178.145 165.488 178.145Z" fill="#D46A43"/>
<path d="M76.5686 370.818L68.0364 384.754L51.79 377.565L59.1665 362.576L76.5686 370.818Z" fill="#EA9B7A"/>
<path d="M0.349854 385.482L61.7898 412.704C62.6079 412.08 63.3871 411.001 64.1144 409.649C66.8026 404.618 68.8156 395.583 70.322 389.98C70.4908 389.33 70.6597 388.719 70.8285 388.173C71.1012 387.25 71.3609 386.483 71.5947 385.95C73.4778 381.673 69.387 380.737 69.387 380.737C60.4651 384.091 57.4782 371.819 52.0368 372.989C52.0368 372.989 49.6992 373.47 42.8812 375.706C36.0632 377.942 26.479 377.162 18.1156 376.993C7.31071 376.772 3.03809 379.437 1.3758 381.829C0.038175 383.74 0.349854 385.482 0.349854 385.482Z" fill="#FAAF3A"/>
<path d="M0.349787 385.482L61.7897 412.704C62.6079 412.08 63.3871 411.001 64.1143 409.649L1.36275 381.842C0.0381078 383.74 0.349787 385.482 0.349787 385.482Z" fill="#C77E2E"/>
<path d="M55.5172 409.922L57.3483 410.728C56.4522 407.842 56.1535 403.89 58.4002 399.418C61.3871 393.477 66.8415 390.994 70.309 389.98C70.4778 389.33 70.6466 388.719 70.8154 388.173C67.1662 389.057 60.543 391.579 56.9717 398.703C54.8289 402.98 54.8159 406.867 55.5172 409.922Z" fill="#C77E2E"/>
<path d="M42.2967 379.801C42.7512 379.996 43.2967 379.879 43.6213 379.463C43.9979 378.982 43.907 378.28 43.4265 377.903L40.011 375.251C39.5305 374.874 38.8292 374.965 38.4526 375.446C38.076 375.927 38.1669 376.629 38.6474 377.006L42.0629 379.658C42.1408 379.723 42.2188 379.775 42.2967 379.801Z" fill="white"/>
<path d="M47.5306 378.293C47.9851 378.488 48.5305 378.371 48.8552 377.955C49.2318 377.474 49.1409 376.772 48.6604 376.395L45.2449 373.743C44.7644 373.366 44.0631 373.457 43.6865 373.938C43.3099 374.419 43.4008 375.121 43.8813 375.498L47.2968 378.15C47.3747 378.215 47.4527 378.267 47.5306 378.293Z" fill="white"/>
<path d="M37.4788 380.334C37.9333 380.529 38.4788 380.412 38.8035 379.996C39.1801 379.515 39.0892 378.813 38.6087 378.436L35.1932 375.784C34.7127 375.407 34.0114 375.498 33.6348 375.979C33.2581 376.46 33.3491 377.162 33.8296 377.539L37.2451 380.191C37.323 380.256 37.4009 380.308 37.4788 380.334Z" fill="white"/>
<path d="M32.6868 380.789C33.1414 380.984 33.6868 380.867 34.0115 380.451C34.3881 379.97 34.2972 379.268 33.8167 378.891L30.4012 376.239C29.9207 375.862 29.2194 375.953 28.8428 376.434C28.4662 376.915 28.5571 377.617 29.0376 377.994L32.4531 380.646C32.531 380.698 32.6089 380.75 32.6868 380.789Z" fill="white"/>
<path d="M27.6219 380.919C28.0764 381.114 28.6219 380.997 28.9465 380.581C29.3231 380.1 29.2322 379.398 28.7517 379.021L25.3362 376.369C24.8557 375.992 24.1544 376.083 23.7778 376.564C23.4012 377.045 23.4921 377.747 23.9726 378.124L27.3881 380.776C27.466 380.841 27.544 380.88 27.6219 380.919Z" fill="white"/>
<path d="M22.3362 380.594C22.7908 380.789 23.3362 380.672 23.6609 380.256C24.0375 379.775 23.9466 379.073 23.4661 378.696L20.0506 376.044C19.5701 375.667 18.8688 375.758 18.4922 376.239C18.1156 376.72 18.2065 377.422 18.687 377.799L22.1025 380.451C22.1804 380.516 22.2583 380.568 22.3362 380.594Z" fill="white"/>
<path d="M114.711 236.307C120.412 230.691 165.398 218.133 195.267 226.479C198.695 233.07 203.046 249.775 192.345 265.232C153.086 271.654 131.178 284.875 131.178 284.875C131.178 284.875 117.256 317.076 108.983 328.893C100.711 340.71 81.7375 378.241 81.7375 378.241L53.1538 366.021C53.1538 366.021 99.1915 251.595 114.711 236.307Z" fill="#39393B"/>
<path d="M84.7892 371.169C84.6854 371.169 84.5815 371.143 84.4776 371.104L56.5043 359.469C56.0887 359.3 55.8809 358.806 56.0627 358.39C56.2316 357.974 56.7121 357.766 57.1406 357.948L85.1139 369.583C85.5295 369.752 85.7373 370.246 85.5555 370.662C85.4126 370.974 85.1139 371.169 84.7892 371.169Z" fill="#585859"/>
<path d="M80.0881 368.816C79.9842 368.816 79.8803 368.803 79.7894 368.764C79.3608 368.595 79.166 368.114 79.3219 367.698C79.3738 367.555 85.2308 352.93 98.8798 332.195C112.438 311.603 126.619 276.776 126.762 276.425C126.931 276.009 127.411 275.801 127.84 275.97C128.256 276.139 128.463 276.62 128.295 277.049C128.152 277.4 113.918 312.37 100.269 333.105C86.7113 353.697 80.9192 368.166 80.8673 368.309C80.7244 368.621 80.4127 368.816 80.0881 368.816Z" fill="#585859"/>
<path d="M148.696 373.275L146.541 389.473H128.775L129.463 372.794L148.696 373.275Z" fill="#EA9B7A"/>
<path d="M84.9448 417.566H152.138C152.631 416.656 152.904 415.369 153.021 413.835C153.436 408.141 151.631 399.067 150.735 393.347C150.631 392.684 150.54 392.06 150.463 391.488C150.333 390.526 150.268 389.733 150.268 389.148C150.268 384.481 146.138 385.274 146.138 385.274C139.333 391.943 131.645 381.933 127.151 385.222C127.151 385.222 125.216 386.613 119.879 391.41C114.541 396.22 105.477 399.379 97.7496 402.616C87.7759 406.789 84.9578 410.949 84.3993 413.822C83.9578 416.097 84.9448 417.566 84.9448 417.566Z" fill="#FAAF3A"/>
<path d="M84.9451 417.566H152.138C152.632 416.656 152.904 415.369 153.021 413.835H84.3867C83.9581 416.097 84.9451 417.566 84.9451 417.566Z" fill="#C77E2E"/>
<path d="M145.281 417.566H147.281C145.294 415.291 143.424 411.794 143.671 406.802C143.995 400.159 147.982 395.674 150.749 393.347C150.645 392.684 150.554 392.06 150.476 391.488C147.489 393.776 142.463 398.768 142.073 406.724C141.827 411.482 143.398 415.044 145.281 417.566Z" fill="#C77E2E"/>
<path d="M121.009 395.375C121.502 395.375 121.957 395.037 122.087 394.53C122.23 393.932 121.879 393.334 121.282 393.191L117.087 392.151C116.49 392.008 115.892 392.359 115.749 392.957C115.606 393.555 115.97 394.153 116.555 394.296L120.749 395.336C120.827 395.362 120.918 395.375 121.009 395.375Z" fill="white"/>
<path d="M125.178 391.878C125.671 391.878 126.126 391.54 126.256 391.033C126.399 390.435 126.048 389.837 125.451 389.694L121.256 388.654C120.659 388.511 120.061 388.875 119.918 389.46C119.775 390.058 120.139 390.656 120.723 390.799L124.918 391.839C124.996 391.865 125.087 391.878 125.178 391.878Z" fill="white"/>
<path d="M116.814 397.819C117.308 397.819 117.762 397.481 117.892 396.974C118.035 396.376 117.684 395.778 117.087 395.635L112.892 394.595C112.295 394.452 111.698 394.803 111.555 395.401C111.412 395.999 111.763 396.597 112.36 396.74L116.555 397.78C116.633 397.806 116.723 397.819 116.814 397.819Z" fill="white"/>
<path d="M112.62 400.172C113.113 400.172 113.568 399.834 113.698 399.327C113.841 398.729 113.49 398.131 112.892 397.988L108.698 396.948C108.1 396.805 107.503 397.156 107.36 397.754C107.217 398.352 107.581 398.95 108.165 399.093L112.36 400.133C112.438 400.159 112.529 400.172 112.62 400.172Z" fill="white"/>
<path d="M108.035 402.343C108.529 402.343 108.983 402.005 109.113 401.498C109.256 400.9 108.892 400.302 108.308 400.159L104.113 399.119C103.516 398.976 102.919 399.327 102.776 399.925C102.633 400.523 102.996 401.121 103.581 401.264L107.776 402.304C107.853 402.33 107.944 402.343 108.035 402.343Z" fill="white"/>
<path d="M103.074 404.189C103.568 404.189 104.022 403.851 104.152 403.344C104.295 402.746 103.944 402.148 103.347 402.005L99.1524 400.965C98.555 400.822 97.9576 401.173 97.8148 401.771C97.6719 402.369 98.0355 402.967 98.6199 403.11L102.815 404.15C102.893 404.176 102.983 404.189 103.074 404.189Z" fill="white"/>
<path d="M283.316 239.232C283.29 239.505 283.251 239.765 283.225 240.012C283.083 240.116 282.953 240.22 282.823 240.324C272.395 248.332 260.226 253.662 247.798 256.691C247.356 256.795 246.928 256.899 246.486 257.003C244.356 257.497 242.214 257.926 240.071 258.277C237.175 258.758 234.279 259.135 231.409 259.382C228.863 259.603 226.331 259.746 223.837 259.785C213.084 259.98 202.89 258.576 194.267 255.833C193.942 255.729 193.604 255.625 193.28 255.508C190.994 254.741 188.838 253.883 186.812 252.934C186.501 252.791 186.189 252.648 185.89 252.492C184.631 251.881 183.423 251.218 182.28 250.529C182.462 246.382 182.514 241.416 182.475 236.112C182.475 235.67 182.475 235.228 182.462 234.786C182.384 227.402 182.163 219.433 181.878 212.153C181.852 211.802 181.839 211.464 181.839 211.126C181.683 207.317 181.501 203.703 181.345 200.492C181.319 200.154 181.306 199.803 181.293 199.478C181.15 196.761 181.007 194.33 180.878 192.341C180.839 191.834 180.813 191.34 180.774 190.833C180.748 190.443 180.722 190.053 180.696 189.676C180.592 188.272 180.475 186.907 180.358 185.555C180.176 183.397 179.968 181.304 179.748 179.276C179.488 176.962 179.215 174.7 178.93 172.529C178.605 170.189 178.28 167.927 177.93 165.756C177.553 163.429 177.163 161.193 176.748 159.048C175.306 151.482 173.683 144.982 172.06 139.366C171.943 138.976 171.839 138.612 171.722 138.222C171.06 135.986 170.41 133.919 169.774 131.969C169.631 131.54 169.488 131.124 169.358 130.695C165.748 119.97 162.761 113.496 162.709 109.154C162.605 100.119 169.203 97.2202 176.085 93.5802C176.41 93.4112 176.735 93.2422 177.059 93.0602C178.215 92.4362 179.384 91.7732 180.501 91.0582C180.981 90.7592 181.449 90.4472 181.904 90.1222C182.228 89.9012 182.527 89.6672 182.826 89.4462C185.553 87.3402 187.942 84.7012 189.501 80.9572L215.513 75.4712C215.513 75.4712 218.006 76.7582 222.175 77.8762C222.565 77.9802 222.967 78.0842 223.396 78.1882C223.889 78.3052 224.396 78.4222 224.928 78.5262C225.253 78.5912 225.604 78.6562 225.941 78.7212C226.201 78.7732 226.474 78.8252 226.746 78.8642C229.24 79.2542 232.123 79.5012 235.383 79.4362C235.707 79.4232 236.045 79.4232 236.37 79.4102C236.603 79.3972 236.837 79.3842 237.071 79.3842C239.279 79.2672 241.382 79.5532 243.408 80.2032C243.798 80.3202 244.175 80.4632 244.551 80.6192C253.006 83.9992 259.655 94.1132 263.953 109.648C265.148 113.964 266.33 118.176 267.473 122.284C267.603 122.739 267.719 123.181 267.849 123.623C268.096 124.52 268.343 125.417 268.59 126.314C268.68 126.639 268.771 126.964 268.862 127.289C269.745 130.474 270.602 133.62 271.434 136.727C271.434 136.727 271.434 136.727 271.434 136.74C271.525 137.065 271.615 137.403 271.693 137.728C271.693 137.728 271.693 137.728 271.693 137.741C271.745 137.923 271.784 138.092 271.836 138.261L272.304 140.081C275.187 151.196 277.589 161.908 279.135 172.711C279.459 174.96 279.745 177.209 279.979 179.471C280.044 180.017 280.109 180.628 280.174 181.317C280.187 181.447 280.2 181.564 280.213 181.694C280.239 181.928 280.265 182.162 280.29 182.409C280.303 182.526 280.316 182.656 280.329 182.773C280.745 186.868 281.277 192.536 281.81 198.789C281.836 199.114 281.875 199.452 281.901 199.79C283.096 214.298 284.174 231.614 283.316 239.232Z" fill="#DF615C"/>
<path d="M204.15 96.2582C214.539 94.0612 220.149 81.0612 220.383 80.4892C220.539 80.1122 220.37 79.6702 219.994 79.5142C219.617 79.3582 219.175 79.5272 219.02 79.9042C218.968 80.0342 213.266 93.2812 203.241 94.9062C193.384 96.5052 189.462 89.2512 189.293 88.9392C189.098 88.5752 188.657 88.4322 188.293 88.6272C187.929 88.8222 187.787 89.2642 187.981 89.6282C188.02 89.7192 192.54 98.1562 203.487 96.3752C203.708 96.3492 203.929 96.2972 204.15 96.2582Z" fill="#A92F4B"/>
<path d="M214.682 234.63C224.448 232.576 234.539 227.545 244.629 219.654C258.473 208.825 267.564 196.267 267.655 196.137C267.888 195.799 267.823 195.344 267.486 195.097C267.148 194.863 266.681 194.928 266.447 195.266C266.356 195.396 257.369 207.798 243.694 218.497C231.149 228.312 211.955 238.66 191.8 232.212C191.41 232.082 190.994 232.303 190.864 232.693C190.735 233.083 190.955 233.499 191.345 233.629C198.773 236.008 206.617 236.333 214.682 234.63Z" fill="#A92F4B"/>
<path d="M208.838 227.168C208.851 227.168 208.851 227.168 208.838 227.168C224.058 223.697 232.227 200.713 232.577 199.738C232.707 199.348 232.512 198.932 232.123 198.789C231.733 198.659 231.318 198.854 231.175 199.244C231.097 199.478 222.928 222.423 208.526 225.712C208.123 225.803 207.877 226.206 207.968 226.609C208.058 226.999 208.448 227.246 208.838 227.168Z" fill="#A92F4B"/>
<path d="M180.748 190.82C182.631 189.52 184.41 187.908 185.812 186.075C189.202 181.655 189.656 177.131 187.098 173.335C186.579 172.581 186.111 171.892 185.669 171.242C180.436 163.598 179.89 162.805 180.345 150.234C180.488 146.282 179.371 143.162 177.033 141.004C175.462 139.535 173.54 138.69 171.696 138.196C171.813 138.573 171.917 138.95 172.033 139.34C173.566 139.808 175.098 140.562 176.358 141.732C178.475 143.695 179.475 146.555 179.345 150.208C178.877 163.104 179.553 164.092 184.838 171.814C185.28 172.464 185.747 173.153 186.267 173.907C189.384 178.496 186.825 183.124 185.02 185.477C183.812 187.05 182.293 188.48 180.67 189.663C180.696 190.04 180.735 190.43 180.748 190.82Z" fill="#A92F4B"/>
<path d="M280.316 182.721C278.29 183.904 276.33 184.645 274.459 185.048C269.408 186.114 265.031 184.58 262.213 181.746C258.849 178.353 257.538 172.516 261.551 167.94C265.421 163.507 263.758 161.154 261.655 158.164C259.577 155.226 256.992 151.56 259.681 145.125C261.226 141.42 263.603 138.885 266.745 137.611C268.317 136.974 269.914 136.714 271.421 136.675C271.511 137 271.602 137.338 271.68 137.663C270.213 137.676 268.641 137.91 267.109 138.534C264.226 139.704 262.031 142.057 260.59 145.502C258.109 151.43 260.33 154.55 262.46 157.579C264.629 160.66 266.68 163.572 262.291 168.577C259.057 172.269 259.304 177.391 262.914 181.018C266.551 184.684 273.031 185.958 280.2 181.603C280.226 181.837 280.251 182.071 280.277 182.318C280.29 182.474 280.303 182.604 280.316 182.721Z" fill="#A92F4B"/>
<path d="M212.474 186.465C214.98 190.781 220.409 192.848 225.37 191.405C226.123 191.184 226.915 190.898 227.707 190.56C234.084 187.83 241.434 181.395 244.252 173.907C246.421 168.135 245.759 162.22 242.317 156.825C237.226 148.843 234.279 141.42 233.785 135.388C233.486 131.813 231.032 129.044 227.538 128.329C224.019 127.614 220.668 129.2 218.993 132.372C218.902 132.541 218.811 132.71 218.72 132.879C214.435 141.251 216.993 147.309 219.253 152.652C221.617 158.242 223.655 163.065 217.201 169.331C211.331 175.025 209.565 181.434 212.474 186.465ZM217.902 170.033C224.863 163.286 222.578 157.917 220.175 152.249C217.889 146.854 215.539 141.29 219.617 133.321C219.707 133.152 219.785 132.983 219.876 132.827C220.655 131.358 221.837 130.279 223.24 129.681C224.487 129.148 225.902 128.992 227.344 129.291C230.408 129.928 232.551 132.346 232.811 135.466C233.11 138.976 234.136 142.811 235.915 146.958C237.317 150.247 239.187 153.705 241.499 157.345C244.811 162.545 245.421 167.992 243.343 173.556C240.291 181.694 231.668 188.532 225.11 190.443C220.565 191.769 215.63 189.884 213.344 185.958C210.669 181.356 212.37 175.402 217.902 170.033Z" fill="#A92F4B"/>
<path d="M169.319 130.669C169.462 131.085 169.592 131.501 169.735 131.93C173.202 133.321 176.397 133.269 178.942 132.723C180.241 132.45 181.371 132.047 182.293 131.657C188.644 128.914 192.955 123.025 192.851 119.463C192.812 118.124 192.137 117.149 190.955 116.72C184.124 114.224 181.345 109.713 180.306 99.4562C180.02 96.6742 178.916 94.5162 177.007 93.0212C176.683 93.1902 176.358 93.3593 176.033 93.5413C176.111 93.5933 176.189 93.6583 176.28 93.7233C178.033 95.0363 179.046 96.9992 179.306 99.5602C180.384 110.285 183.345 115.017 190.604 117.656C191.41 117.955 191.812 118.553 191.838 119.489C191.929 122.726 187.695 128.225 181.877 130.747C179.202 131.93 174.54 133.087 169.319 130.669Z" fill="#A92F4B"/>
<path d="M204.578 132.32C205.799 133.646 207.773 134.14 209.734 133.737C210.383 133.594 211.032 133.36 211.643 133.022C214.785 131.28 215.954 127.64 214.772 123.298C213.539 118.774 215.889 116.603 218.162 114.51C220.162 112.677 222.214 110.779 220.59 107.529C219.344 105.033 217.032 103.863 213.941 104.149C210.292 104.5 207.097 106.736 205.383 110.142C202.474 115.901 199.682 127.016 204.578 132.32ZM206.266 110.584C207.643 107.841 210.175 105.878 213.019 105.28C213.357 105.215 213.695 105.163 214.032 105.124C216.733 104.864 218.643 105.826 219.707 107.958C221.006 110.545 219.526 111.897 217.487 113.769C215.227 115.849 212.422 118.436 213.811 123.545C214.863 127.419 213.876 130.63 211.162 132.138C209.123 133.269 206.604 133.061 205.305 131.644C200.76 126.717 203.474 116.109 206.266 110.584Z" fill="#A92F4B"/>
<path d="M189.968 167.511C190.527 170.137 191.579 172.269 193.397 173.335C196.124 174.934 198.799 175.558 200.773 175.142C201.63 174.96 202.345 174.583 202.89 174.011C204.5 172.282 203.968 169.175 201.436 165.483C198.501 161.206 201.072 158.489 203.812 155.603C206.137 153.146 208.552 150.611 207.202 147.14C206.228 144.644 203.994 143.487 200.734 143.773C195.267 144.267 190.761 148.661 190.02 154.238C189.436 158.58 189.137 163.598 189.968 167.511ZM190.994 154.381C191.306 152.028 192.345 149.909 193.851 148.258C195.371 146.607 197.358 145.424 199.579 144.956C199.981 144.865 200.384 144.813 200.812 144.774C203.656 144.527 205.448 145.411 206.267 147.504C207.396 150.39 205.306 152.6 203.098 154.927C200.345 157.826 197.228 161.115 200.617 166.055C202.864 169.318 203.436 171.983 202.163 173.335C200.747 174.856 197.358 174.505 193.903 172.477C190.735 170.618 189.696 164.183 190.994 154.381Z" fill="#A92F4B"/>
<path d="M181.864 212.14C185.851 210.697 187.189 212.699 189.124 215.598C190.864 218.185 193.02 221.409 197.864 222.553C199.513 222.943 201.098 222.93 202.591 222.618C206.5 221.799 209.695 218.874 211.227 215.598C213.292 211.191 212.383 206.797 208.838 204.119C207.292 202.962 206.487 201.857 206.331 200.752C206.123 199.192 207.292 197.684 208.539 196.085C210.266 193.862 212.227 191.353 210.721 188.129C209.539 185.594 207.318 184.086 204.461 183.865C199.708 183.514 194.383 186.738 190.89 192.055C187.903 196.605 184.124 198.594 181.254 199.452C181.267 199.777 181.293 200.128 181.306 200.466C184.384 199.582 188.5 197.489 191.708 192.601C194.357 188.571 198.085 185.815 201.721 185.048C202.617 184.853 203.513 184.788 204.383 184.853C206.864 185.035 208.786 186.348 209.812 188.545C211.045 191.21 209.435 193.277 207.734 195.461C206.422 197.151 205.058 198.893 205.318 200.869C205.5 202.247 206.448 203.56 208.201 204.899C211.954 207.733 211.747 212.062 210.292 215.169C208.344 219.329 203.513 222.865 198.059 221.578C193.591 220.525 191.63 217.613 189.916 215.039C187.981 212.14 186.293 209.618 181.786 211.1C181.838 211.451 181.851 211.789 181.864 212.14Z" fill="#A92F4B"/>
<path d="M232.356 200.089C232.694 201.818 233.733 203.001 235.265 203.417C236.084 203.638 236.993 203.638 237.954 203.443C240.096 202.988 242.447 201.532 244.369 199.348C246.343 197.112 248.317 197.398 251.044 197.788C253.694 198.165 256.992 198.646 261.2 196.735C265.875 194.603 266.654 190.183 265.408 186.972C264.265 184.073 261.187 181.551 257.109 182.903C254.187 183.865 252.291 185.36 250.603 186.66C248.031 188.662 245.824 190.391 240.746 190.079C238.226 189.923 236.2 190.599 234.759 192.081C231.954 194.954 232.33 199.829 232.343 200.024C232.356 200.063 232.356 200.076 232.356 200.089ZM233.33 199.933C233.304 199.556 233.071 195.24 235.473 192.783C236.707 191.522 238.46 190.95 240.681 191.08C246.122 191.405 248.59 189.494 251.2 187.453C252.901 186.127 254.655 184.762 257.421 183.839C260.888 182.695 263.511 184.853 264.472 187.336C265.563 190.118 264.875 193.966 260.784 195.825C256.836 197.619 253.823 197.19 251.174 196.813C249.642 196.592 248.239 196.397 246.889 196.683C245.759 196.917 244.681 197.502 243.616 198.698C241.109 201.532 237.772 203.092 235.512 202.481C234.356 202.143 233.603 201.272 233.33 199.933Z" fill="#A92F4B"/>
<path d="M275.836 224.009C272.433 229.651 273.862 235.93 277.238 238.751C278.862 240.103 280.784 240.636 282.823 240.324C282.953 240.22 283.082 240.116 283.225 240.012C283.264 239.765 283.29 239.505 283.329 239.232C281.329 239.713 279.459 239.31 277.875 237.984C274.836 235.436 273.55 229.703 276.693 224.529C279.875 219.277 277.368 217.652 274.719 215.936C272.291 214.35 269.758 212.725 270.148 208.006C270.343 205.679 271.278 203.807 272.953 202.442C274.407 201.259 276.264 200.57 278.083 200.18C279.433 199.894 280.771 199.777 281.914 199.738C281.888 199.4 281.862 199.075 281.836 198.737C279.018 198.841 275.083 199.426 272.329 201.675C270.446 203.209 269.381 205.315 269.174 207.928C268.745 213.232 271.771 215.195 274.2 216.768C276.784 218.458 278.511 219.589 275.836 224.009Z" fill="#A92F4B"/>
<path d="M193.28 255.495C193.604 255.612 193.929 255.716 194.267 255.82C194.306 254.286 194.669 250.997 196.942 248.787C198.838 246.954 201.669 246.226 205.357 246.629C210.253 247.175 212.474 249.203 214.422 250.997C217.708 254.013 219.993 255.443 228.565 249.84C231.824 247.708 234.85 246.46 237.486 245.901C241.746 245.004 245.019 245.888 246.733 247.656C248.837 249.827 248.733 253.272 246.486 256.99C246.928 256.886 247.356 256.782 247.798 256.678C249.837 252.856 249.733 249.307 247.46 246.954C244.408 243.808 237.032 243.106 228.032 248.995C219.682 254.468 217.954 252.882 215.097 250.256C213.136 248.449 210.682 246.2 205.461 245.628C201.461 245.186 198.358 246.005 196.241 248.072C193.851 250.425 193.358 253.714 193.28 255.495Z" fill="#A92F4B"/>
<path d="M249.032 239.505C250.278 242.17 254.382 244.367 258.213 243.561C258.382 243.522 258.551 243.483 258.707 243.431C264.551 241.78 267.914 237.035 268.174 230.08C268.369 224.698 267.875 219.42 262.901 217.132C262.875 217.119 262.849 217.106 262.811 217.106C262.577 217.054 257.07 215.715 253.642 218.042C252.2 219.017 251.343 220.499 251.097 222.423C250.642 225.829 251.681 227.922 252.421 229.443C253.356 231.315 253.772 232.173 250.915 234.123C248.798 235.592 248.11 237.555 249.032 239.505ZM251.473 234.968C254.876 232.641 254.382 231.198 253.317 229.027C252.59 227.545 251.668 225.686 252.071 222.579C252.291 220.941 253.006 219.693 254.2 218.874C257.122 216.885 262.018 217.951 262.525 218.068C266.083 219.719 267.434 223.203 267.174 230.041C267.005 234.63 265.343 240.519 258.434 242.482C254.993 243.444 251.032 241.455 249.928 239.089C249.214 237.568 249.746 236.151 251.473 234.968Z" fill="#A92F4B"/>
<path d="M185.89 252.479C186.189 252.635 186.501 252.778 186.812 252.921C188.89 250.49 189.747 247.838 189.345 245.069C188.696 240.571 184.942 236.801 182.462 234.773C182.475 235.215 182.475 235.657 182.475 236.099C184.787 238.14 187.825 241.442 188.371 245.212C188.734 247.734 187.929 250.139 185.981 252.388C185.942 252.414 185.916 252.453 185.89 252.479Z" fill="#A92F4B"/>
<path d="M166.761 36.1591C166.761 36.1591 152.021 33.0391 151.671 27.4101C151.359 22.2101 157.489 22.7561 157.489 22.7561C157.489 22.7561 150.333 11.0041 154.437 8.70311C158.541 6.38911 163.722 12.9801 163.722 12.9801C163.722 12.9801 159.969 -0.955894 164.982 0.0451063C169.995 1.04611 170.644 8.70311 170.644 8.70311C170.644 8.70311 187.306 2.7621 196.773 5.6091C203.228 7.5461 204.747 13.7601 204.747 13.7601C204.747 13.7601 208.578 11.4721 211.305 12.8761C214.02 14.2801 211.539 19.0641 211.539 19.0641C211.539 19.0641 215.747 22.3011 214.461 27.4491C213.176 32.5971 209.5 42.7631 209.5 42.7631L166.761 36.1591Z" fill="#39393B"/>
<path d="M187.566 77.1091L188.994 83.8951C189.916 84.3631 190.839 84.7531 191.748 85.0651C204.994 89.6541 215.838 78.2271 215.838 78.2271L210.89 54.7231L190.345 74.4441L187.566 77.1091Z" fill="#EA9B7A"/>
<path d="M187.566 77.1092L188.994 83.8952C189.916 84.3632 190.839 84.7532 191.748 85.0652C200.929 78.9812 206.007 66.9302 206.007 66.9302L190.358 74.4442L187.566 77.1092Z" fill="#39393B"/>
<path d="M174.527 22.2102C174.527 22.2102 158.488 27.2022 168.008 43.1012C167.995 43.0882 175.839 26.6042 174.527 22.2102Z" fill="#39393B"/>
<path d="M172.774 48.8471C172.774 48.8471 167.969 45.1031 166.748 50.1211C165.527 55.1261 169.137 63.9791 174.683 61.2491L172.774 48.8471Z" fill="#D46A43"/>
<path d="M172.033 65.6692C172.033 65.6692 174.968 79.6962 189.527 76.5892C203.994 73.5082 211.461 60.0532 211.864 59.4162C211.877 59.4032 211.877 59.4032 211.877 59.4032L211.409 56.4262L209.007 40.9562L207.721 32.6882C207.721 32.6882 206.474 17.5822 191.942 17.8422C181.319 18.0372 172.111 21.7552 168.397 28.0992C167.034 30.4392 166.41 33.1432 166.748 36.1592L169.384 50.9402L170.034 54.5672L172.033 65.6692Z" fill="#EA9B7A"/>
<path d="M201.734 42.7761C201.734 42.7761 199.591 51.3821 194.851 50.9921C190.111 50.5891 184.852 51.1351 181.189 53.8781C181.189 53.8781 173.852 52.7861 170.384 56.4391C168.06 58.8961 173.527 77.1741 183.67 77.8241C193.812 78.4871 206.007 72.3901 207.215 62.6921C208.422 52.9941 206.604 45.3371 206.604 45.3371L201.734 42.7761Z" fill="#39393B"/>
<path d="M178.202 57.9732C178.202 57.9732 186.397 57.1281 190.41 54.8271C190.41 54.8271 192.202 62.8352 185.28 63.5242C179.722 64.0832 178.202 57.9732 178.202 57.9732Z" fill="white"/>
<path d="M188.773 48.7303C188.994 49.7573 191.267 50.1343 193.851 49.5883C196.435 49.0423 198.37 47.7683 198.15 46.7543C197.929 45.7273 195.656 45.3503 193.072 45.8963C190.487 46.4423 188.565 47.7033 188.773 48.7303Z" fill="#D46A43"/>
<path d="M170.047 54.5541C170.41 54.5151 170.8 54.4501 171.19 54.3721C173.774 53.8261 175.709 52.5521 175.488 51.5381C175.267 50.5241 172.995 50.1341 170.41 50.6801C170.06 50.7581 169.722 50.8361 169.397 50.9401L170.047 54.5541Z" fill="#D46A43"/>
<path d="M187.747 43.0753C188.046 44.4793 188.916 45.4803 189.695 45.3113C190.474 45.1423 190.877 43.8812 190.578 42.4772C190.28 41.0732 189.41 40.0723 188.63 40.2413C187.851 40.4103 187.449 41.6713 187.747 43.0753Z" fill="#39393B"/>
<path d="M173.89 46.0003C174.189 47.4043 175.059 48.4053 175.838 48.2363C176.618 48.0673 177.02 46.8063 176.721 45.4023C176.423 43.9983 175.553 42.9973 174.773 43.1663C173.994 43.3353 173.592 44.5963 173.89 46.0003Z" fill="#39393B"/>
<path d="M182.501 51.5513C182.825 51.4863 183.02 51.1743 182.955 50.8493C182.89 50.5373 182.579 50.3293 182.254 50.3943C180.137 50.8363 178.916 49.9393 178.475 49.5103C179.773 44.2843 181.046 39.0193 181.059 38.9673C181.137 38.6553 180.942 38.3303 180.631 38.2523C180.319 38.1743 179.994 38.3693 179.916 38.6813C179.903 38.7333 178.579 44.1933 177.254 49.5233C177.215 49.6923 177.254 49.8743 177.358 50.0173C177.436 50.1343 179.085 52.2793 182.501 51.5513Z" fill="#39393B"/>
<path d="M193.396 35.1712C192.76 33.7542 190.942 31.2452 186.176 32.0252C185.591 32.1162 185.15 32.6102 185.124 33.1952C185.085 33.9362 185.669 34.5603 186.41 34.5473C187.708 34.5082 189.669 34.8073 191.15 36.6403C191.604 37.2123 192.474 37.2382 192.994 36.7312L193.111 36.6142C193.513 36.2372 193.617 35.6652 193.396 35.1712Z" fill="#39393B"/>
<path d="M169.176 40.2804C169.189 38.7334 169.826 35.6914 174.514 34.4824C175.085 34.3394 175.683 34.6124 175.955 35.1324C176.293 35.7954 176.007 36.6014 175.319 36.8874C174.111 37.3814 172.436 38.4473 171.826 40.7093C171.631 41.4113 170.865 41.7884 170.176 41.5414L170.02 41.4894C169.501 41.3074 169.176 40.8134 169.176 40.2804Z" fill="#39393B"/>
<path d="M206.098 54.6841C206.202 54.8271 208.942 58.7141 211.851 59.4161C211.864 59.4031 211.864 59.4031 211.864 59.4031L211.396 56.4261C211.409 56.4131 209.033 56.5041 206.098 54.6841Z" fill="#39393B"/>
<path d="M206.617 44.4143C206.617 44.4143 210.63 35.7043 215.981 40.7613C220.383 44.9213 216.669 58.9743 209.059 56.0363L206.617 44.4143Z" fill="#EA9B7A"/>
<path d="M209.357 53.5922C209.643 53.5272 209.851 53.2542 209.825 52.9552C209.253 47.1312 213.604 44.1282 213.786 44.0112C214.058 43.8292 214.123 43.4652 213.942 43.1922C213.76 42.9192 213.396 42.8542 213.123 43.0232C212.916 43.1662 207.994 46.5202 208.643 53.0592C208.669 53.3842 208.968 53.6182 209.292 53.5922C209.305 53.6052 209.331 53.6052 209.357 53.5922Z" fill="#39393B"/>
<path d="M213.994 48.9641C214.162 48.9251 214.305 48.8211 214.396 48.6521C214.539 48.3661 214.435 48.0021 214.136 47.8591C213.864 47.7161 211.461 46.5201 209.825 47.3391C209.539 47.4821 209.409 47.8331 209.552 48.1321C209.695 48.4181 210.046 48.5481 210.344 48.4051C211.279 47.9371 213.058 48.6391 213.604 48.9251C213.721 48.9771 213.864 48.9901 213.994 48.9641Z" fill="#39393B"/>
<path d="M168.411 28.0992C168.618 28.5672 168.917 28.9442 169.307 29.2172C172.761 31.5962 179.229 29.1262 185.021 25.9022C190.813 22.6782 196.111 26.2662 196.111 26.2662C195.644 32.5712 201.579 31.8172 201.28 36.5882C200.981 41.3592 202.708 47.1962 202.708 47.1962L206.241 45.9482C206.578 43.6732 207.994 41.9312 208.994 40.9562L207.708 32.6882C207.708 32.6882 206.462 17.5822 191.929 17.8422C181.332 18.0372 172.112 21.7422 168.411 28.0992Z" fill="#39393B"/>
<path d="M276.901 226.934C276.901 226.934 290.771 281.703 218.864 281.703C180.462 281.703 162.203 277.998 162.203 277.998C162.203 277.998 161.281 311.941 159.489 326.267C157.696 340.593 151.372 376.265 151.372 376.265L121.126 378.605C121.126 378.605 116.295 254.325 134.827 242.885C153.359 231.445 180.02 231.107 225.786 226.7C225.799 226.7 266.888 219.745 276.901 226.934Z" fill="#39393B"/>
<path d="M147.242 366.333C147.177 366.333 147.112 366.32 147.047 366.307C146.605 366.203 146.333 365.761 146.437 365.319C150.618 347.834 152.281 322.796 153.605 302.672C154.917 282.834 155.709 272.395 157.761 270.575C160.034 268.573 166.761 269.288 177.916 270.471C191.747 271.94 212.63 274.163 235.162 271.576C246.356 270.289 254.927 265.908 260.654 258.537C270.927 245.316 268.576 226.765 268.55 226.583C268.485 226.128 268.81 225.712 269.252 225.66C269.706 225.595 270.122 225.92 270.174 226.362C270.277 227.142 272.654 245.771 261.953 259.538C255.94 267.273 246.992 271.875 235.343 273.214C212.63 275.827 191.63 273.591 177.734 272.109C168.137 271.082 160.566 270.276 158.839 271.81C158.449 272.161 157.67 273.864 156.878 281.391C156.281 286.955 155.8 294.287 155.242 302.789C153.904 322.978 152.242 348.094 148.021 365.709C147.943 366.086 147.605 366.333 147.242 366.333Z" fill="#585859"/>
<path d="M121.464 368.803C121.035 368.803 120.671 368.465 120.645 368.023C120.619 367.568 120.97 367.178 121.412 367.152L152.346 365.28C152.8 365.254 153.19 365.605 153.216 366.047C153.242 366.502 152.891 366.892 152.45 366.918L121.516 368.79C121.49 368.803 121.477 368.803 121.464 368.803Z" fill="#585859"/>
<path d="M204.669 242.612H114.061C113.853 242.612 113.684 242.443 113.684 242.235V231.068C113.684 230.86 113.853 230.691 114.061 230.691H204.669C204.876 230.691 205.045 230.86 205.045 231.068V242.235C205.045 242.443 204.876 242.612 204.669 242.612Z" fill="#CED3E6"/>
<path d="M104.152 242.612C100.711 242.612 97.7106 240.298 96.8146 236.97L79.7241 172.919C78.6852 169.006 81.6332 165.158 85.672 165.158H126.58C129.333 165.158 131.762 166.991 132.515 169.656L152.982 242.599H104.152V242.612Z" fill="white"/>
<path d="M132.528 169.669L152.826 242.014H157.501L137.203 169.669C136.45 167.004 134.034 165.171 131.268 165.171H126.593C129.346 165.158 131.774 167.004 132.528 169.669Z" fill="#CED3E6"/>
<path d="M120.97 204.925C121.905 208.942 119.398 212.205 115.372 212.205C111.359 212.205 107.347 208.942 106.411 204.925C105.476 200.908 107.983 197.645 112.009 197.645C116.022 197.645 120.034 200.908 120.97 204.925Z" fill="#CED3E6"/>
<path d="M176.761 216.508C176.761 216.508 158.216 217.782 152.294 223.463L155.904 236.307C155.904 236.307 166.995 231.77 170.06 232.212C173.138 232.654 174.969 237.698 185.241 234.63L176.761 216.508Z" fill="#EA9B7A"/>
<path d="M176.852 215.663L178.943 214.805L181.111 213.895C182.566 213.284 184.007 212.647 185.462 211.997C188.358 210.71 191.228 209.384 194.085 208.006C199.786 205.263 205.384 202.351 210.773 199.27C216.162 196.176 221.383 192.9 226.136 189.39C227.318 188.506 228.487 187.622 229.604 186.725C230.72 185.815 231.798 184.905 232.837 183.982C234.876 182.136 236.746 180.238 238.214 178.392C238.941 177.482 239.59 176.559 240.071 175.753C240.499 175.012 240.915 174.193 241.279 173.27C242.006 171.437 242.577 169.266 242.967 166.887C243.733 162.103 243.759 156.578 243.266 150.923C242.772 145.255 241.772 139.405 240.46 133.594C239.798 130.682 239.045 127.77 238.227 124.897C237.811 123.454 237.383 122.024 236.941 120.62C236.72 119.918 236.487 119.216 236.266 118.527L235.928 117.526L235.759 117.045L235.681 116.824L235.642 116.72L235.629 116.681C231.72 108.517 235.162 98.7152 243.318 94.8022C251.473 90.8892 261.265 94.3343 265.174 102.498C265.551 103.291 265.862 104.097 266.109 104.903L266.603 106.606L266.733 107.061L266.836 107.425L267.031 108.127L267.382 109.479C267.603 110.376 267.823 111.247 268.031 112.131C268.447 113.886 268.836 115.628 269.187 117.37C269.914 120.867 270.538 124.364 271.07 127.9C272.122 134.972 272.836 142.161 272.927 149.597C272.979 153.315 272.849 157.098 272.512 160.946C272.161 164.807 271.564 168.746 270.59 172.776C269.603 176.806 268.213 180.927 266.161 185.035C265.122 187.089 263.914 189.117 262.499 191.08C261.122 192.978 259.72 194.616 258.278 196.163C255.395 199.231 252.421 201.779 249.421 204.106C246.421 206.407 243.382 208.474 240.331 210.398C234.227 214.22 228.058 217.47 221.838 220.447C215.617 223.411 209.344 226.089 203.033 228.572C199.877 229.807 196.708 231.003 193.514 232.147C191.916 232.719 190.319 233.278 188.709 233.824L186.28 234.643L183.748 235.462C178.254 237.23 172.358 234.214 170.579 228.715C168.891 223.476 171.54 217.886 176.553 215.819L176.852 215.663Z" fill="#EA9B7A"/>
<path d="M252.733 180.42C252.668 180.42 252.603 180.407 252.551 180.394C246.227 178.496 239.162 178.782 239.097 178.795C238.733 178.808 238.435 178.535 238.422 178.171C238.409 177.807 238.682 177.508 239.045 177.495C239.344 177.482 246.396 177.183 252.941 179.146C253.279 179.25 253.473 179.614 253.382 179.952C253.266 180.238 253.006 180.42 252.733 180.42Z" fill="#D46A43"/>
<path d="M240.681 178.769C240.499 178.769 240.318 178.691 240.188 178.548C239.954 178.275 239.98 177.872 240.253 177.625C242.616 175.584 245.577 174.687 245.707 174.648C246.045 174.544 246.408 174.739 246.512 175.09C246.616 175.428 246.421 175.792 246.071 175.896C246.045 175.909 243.24 176.754 241.097 178.6C240.993 178.717 240.837 178.769 240.681 178.769Z" fill="#D46A43"/>
<path d="M275.849 139.015L262.408 142.707L261.421 142.98L252.135 145.528L251.006 145.84L239.058 149.116L238.136 144.878L237.928 143.864L235.772 133.906L235.552 132.905L231.487 114.12C230.383 109.778 229.656 104.344 230.266 99.9112C231.162 93.3462 236.915 84.8312 247.525 84.2592C249.421 84.1552 251.2 84.4412 252.863 85.0522C253.2 85.1562 253.538 85.2992 253.863 85.4422C257.07 86.8982 259.85 89.5762 262.239 93.0212C262.434 93.2942 262.616 93.5672 262.785 93.8532C267.33 100.769 270.434 110.441 272.512 119.489C272.602 119.84 272.68 120.191 272.758 120.542C273.719 124.845 274.447 128.992 274.992 132.58C275.083 133.139 275.161 133.685 275.226 134.218C275.486 136.012 275.693 137.624 275.849 139.015Z" fill="#DF615C"/>
<path d="M274.992 132.58C273.395 131.124 271.239 130.11 267.914 130.708C263.966 131.41 260.862 130.136 259.616 127.289C258.668 125.157 259.109 122.661 260.629 121.491C263.668 119.151 268.33 119.346 272.758 120.542C272.68 120.191 272.602 119.84 272.512 119.489C267.966 118.332 263.213 118.254 260.018 120.698C258.59 121.803 257.928 123.727 258.161 125.716C258.239 126.379 258.421 127.042 258.694 127.692C260.148 130.981 263.668 132.476 268.096 131.683C271.667 131.033 273.641 132.424 275.226 134.218C275.161 133.698 275.083 133.152 274.992 132.58Z" fill="#A92F4B"/>
<path d="M260.953 103.174C258.2 99.1832 260.265 96.5442 262.785 93.8662C262.616 93.5802 262.434 93.3072 262.239 93.0342C259.577 95.8292 256.889 99.0402 260.135 103.746C262.382 107.009 262.94 109.661 261.681 111.026C260.265 112.547 256.863 112.196 253.421 110.168C250.252 108.296 249.227 101.874 250.512 92.0722C250.824 89.7192 251.863 87.6002 253.369 85.9492C253.525 85.7802 253.694 85.6112 253.863 85.4552C253.538 85.3122 253.2 85.1692 252.863 85.0652C251.084 86.8982 249.889 89.2772 249.525 91.9292C248.967 96.2582 248.668 101.289 249.486 105.189C250.045 107.815 251.097 109.947 252.915 111.026C255.642 112.625 258.33 113.249 260.291 112.833C261.148 112.651 261.876 112.274 262.408 111.702C264.018 109.973 263.486 106.866 260.953 103.174Z" fill="#A92F4B"/>
<path d="M235.798 133.035C233.591 119.892 230.798 107.594 230.773 107.464C230.708 107.204 230.448 107.035 230.188 107.1C229.928 107.165 229.76 107.425 229.824 107.685C229.85 107.815 232.63 120.048 234.824 133.126C234.967 133.633 235.798 133.659 235.798 133.035Z" fill="#A92F4B"/>
<path d="M232.24 117.175C232.149 117.175 232.058 117.149 231.98 117.097L226.915 113.847C226.695 113.704 226.617 113.405 226.773 113.171C226.915 112.937 227.214 112.872 227.448 113.028L232.513 116.278C232.733 116.421 232.811 116.72 232.656 116.954C232.565 117.097 232.396 117.175 232.24 117.175Z" fill="#A92F4B"/>
<path d="M199.41 118.579C197.695 118.579 196.124 117.955 194.721 116.72C186.709 109.661 186.748 83.9991 186.748 82.9071C186.748 82.4 187.163 81.984 187.683 81.984C188.202 81.984 188.618 82.4 188.605 82.92C188.605 83.18 188.566 108.816 195.942 115.316C197.202 116.421 198.578 116.863 200.124 116.655C209.981 115.355 214.461 86.6381 215.357 75.6791C215.396 75.1721 215.851 74.782 216.357 74.821C216.864 74.86 217.253 75.3151 217.214 75.8221C217.201 75.9261 216.357 86.04 213.955 96.245C210.643 110.259 206.072 117.747 200.371 118.501C200.059 118.566 199.734 118.579 199.41 118.579Z" fill="white"/>
<path d="M273.862 358.273H176.748C174.475 358.273 172.631 356.427 172.631 354.152C172.631 351.877 174.475 350.031 176.748 350.031H273.862C276.135 350.031 277.979 351.877 277.979 354.152C277.979 356.427 276.135 358.273 273.862 358.273Z" fill="#084FC7"/>
<path d="M167.813 421.154C167.631 421.154 167.449 421.141 167.267 421.115C165.021 420.816 163.436 418.736 163.735 416.487L181.423 284.277C181.695 282.236 183.436 280.702 185.501 280.702H264.732C266.797 280.702 268.537 282.236 268.81 284.277L286.225 416.5C286.524 418.749 284.939 420.829 282.68 421.115C280.433 421.414 278.355 419.828 278.07 417.566L261.122 288.931H189.098L171.891 417.579C171.605 419.659 169.839 421.154 167.813 421.154Z" fill="#0875F7"/>
<path d="M208.448 284.823H259.901C276.2 284.823 293.667 275.892 296.16 259.772C299.511 238.205 300.329 217.327 299.407 198.165C298.355 176.494 289.94 156.37 272.914 142.941C272.914 142.941 280.265 226.531 273.628 249.619C264.784 280.468 208.448 284.823 208.448 284.823Z" fill="#0875F7"/>
</svg>
