<svg width="22" height="22" viewBox="0 0 22 22" fill="none" xmlns="http://www.w3.org/2000/svg">
<path d="M10.7683 21.2611C16.5564 21.2611 21.2485 16.5641 21.2485 10.7701C21.2485 4.97604 16.5564 0.279053 10.7683 0.279053C4.98026 0.279053 0.288086 4.97604 0.288086 10.7701C0.288086 16.5641 4.98026 21.2611 10.7683 21.2611Z" fill="#DD615C"/>
<path d="M5.82035 16.8151C6.10606 16.8151 6.37875 16.7111 6.59952 16.4901L16.4824 6.5971C16.911 6.1681 16.911 5.46608 16.4824 5.03708C16.0538 4.60808 15.3525 4.60808 14.924 5.03708L5.04115 14.9301C4.61259 15.3591 4.61259 16.0611 5.04115 16.4901C5.26192 16.7111 5.53465 16.8151 5.82035 16.8151Z" fill="white"/>
<path d="M15.7032 16.8151C15.9889 16.8151 16.2616 16.7111 16.4824 16.4901C16.911 16.0611 16.911 15.3591 16.4824 14.9301L6.59952 5.03708C6.17096 4.60808 5.46971 4.60808 5.04115 5.03708C4.61259 5.46608 4.61259 6.1681 5.04115 6.5971L14.924 16.4901C15.1448 16.7111 15.4305 16.8151 15.7032 16.8151Z" fill="white"/>
</svg>
