<svg width="425" height="308" viewBox="0 0 425 308" fill="none" xmlns="http://www.w3.org/2000/svg">
<path d="M406.948 7.70358V14.999C406.948 19.1983 404.421 22.5968 401.289 22.5968H7.21355C4.08187 22.5968 1.55518 19.1983 1.55518 14.999V7.70358C1.55518 3.50428 4.08187 0.105713 7.21355 0.105713H401.272C404.403 0.105713 406.948 3.50428 406.948 7.70358Z" fill="#21B573"/>
<path d="M406.948 10.0167H1.55518V13.3619H406.948V10.0167Z" fill="#217C58"/>
<path d="M395.097 41.3335H24.6868C23.032 41.3335 21.6797 39.9812 21.6797 38.3264V22.4901H398.104V38.3264C398.104 39.9812 396.752 41.3335 395.097 41.3335Z" fill="#217C58"/>
<path d="M378.46 134.287H47.1958V147.206H378.46V134.287Z" fill="#217C58"/>
<path d="M23.3168 307.242L87.4451 41.3335H64.9183L0.790039 307.242H23.3168Z" fill="#21B573"/>
<path d="M401.912 307.242L337.766 41.3335H360.293L424.421 307.242H401.912Z" fill="#21B573"/>
</svg>
