<svg width="721" height="442" viewBox="0 0 721 442" fill="none" xmlns="http://www.w3.org/2000/svg">
<g opacity="0.8">
<g opacity="0.5">
<g opacity="0.5">
<g opacity="0.5">
<g opacity="0.5">
<path opacity="0.5" d="M386.636 161.427C355.404 156.812 325.807 144.085 300.262 124.78C262.107 95.9591 182.278 46.9101 106.124 71.3371C1.07527 105.033 0.607736 202.52 27.9706 255.469C55.3335 308.418 249.354 463.495 500.906 438.821C726.004 416.747 769.86 164.001 649.811 118.267C545.697 78.6171 510.166 179.692 386.636 161.427Z" fill="#CED3E6"/>
</g>
</g>
</g>
</g>
<g opacity="0.5">
<g opacity="0.5">
<g opacity="0.5">
<g opacity="0.5">
<path opacity="0.5" d="M710.693 134.543C716.086 134.543 720.459 129.834 720.459 124.026C720.459 118.218 716.086 113.509 710.693 113.509C705.299 113.509 700.927 118.218 700.927 124.026C700.927 129.834 705.299 134.543 710.693 134.543Z" fill="#CED3E6"/>
</g>
</g>
</g>
</g>
<g opacity="0.8">
<g opacity="0.8">
<g opacity="0.8">
<g opacity="0.8">
<path opacity="0.8" d="M73.4629 54.7493C76.4628 54.2033 79.4887 55.8543 80.5406 58.7143C82.3328 63.5893 77.6316 69.0623 71.2941 66.6053C65.8268 62.5623 68.2163 55.7243 73.4629 54.7493Z" fill="#CED3E6"/>
</g>
</g>
</g>
</g>
<g opacity="0.8">
<g opacity="0.8">
<path opacity="0.8" d="M693.032 39.0371C697.997 34.0669 697.997 26.0087 693.032 21.0386C688.067 16.0684 680.017 16.0684 675.052 21.0385C670.087 26.0087 670.086 34.0669 675.052 39.0371C680.017 44.0073 688.067 44.0072 693.032 39.0371Z" fill="#CED3E6"/>
</g>
</g>
<g opacity="0.8">
<g opacity="0.8">
<path opacity="0.8" d="M112.007 44.7132C113.916 51.5512 109.942 58.6492 103.111 60.5602C96.2804 62.4712 89.1897 58.4932 87.2807 51.6552C85.3716 44.8172 89.3456 37.7192 96.1765 35.8082C103.008 33.8842 110.098 37.8752 112.007 44.7132Z" fill="#CED3E6"/>
</g>
</g>
<g opacity="0.8">
<g opacity="0.8">
<g opacity="0.8">
<g opacity="0.8">
<path opacity="0.8" d="M620.189 427.758C623.033 426.653 626.318 427.719 627.877 430.332C630.552 434.791 626.942 441.031 620.254 439.809C614.137 436.845 615.202 429.682 620.189 427.758Z" fill="#CED3E6"/>
</g>
</g>
</g>
</g>
<g opacity="0.8">
<g opacity="0.8">
<path opacity="0.8" d="M656.188 410.715C659.344 417.072 656.746 424.794 650.383 427.94C644.019 431.086 636.318 428.499 633.175 422.129C630.02 415.772 632.617 408.05 638.981 404.904C645.331 401.758 653.032 404.358 656.188 410.715Z" fill="#CED3E6"/>
</g>
</g>
<g opacity="0.8">
<g opacity="0.8">
<path opacity="0.8" d="M667.915 10.5491C667.915 14.8781 664.408 18.3751 660.097 18.3751C655.772 18.3751 652.279 14.8651 652.279 10.5491C652.279 6.22015 655.785 2.72314 660.097 2.72314C664.408 2.72314 667.915 6.23315 667.915 10.5491Z" fill="#CED3E6"/>
</g>
</g>
</g>
<g opacity="0.8">
<path opacity="0.8" d="M688.745 152.392C688.732 82.4521 630.552 5.8041 558.151 1.1761C556.879 1.0981 555.593 1.0201 554.294 0.968102C450.492 -3.8809 442.583 122.856 348.663 137.156C254.744 151.456 183.018 79.2931 70.6448 126.366C-30.2876 168.655 -57.6246 406.243 238.926 415.772C476.192 423.39 688.771 361.081 688.745 152.392Z" fill="#CED3E6"/>
</g>
</svg>
