<svg width="93" height="177" viewBox="0 0 93 177" fill="none" xmlns="http://www.w3.org/2000/svg">
<path d="M21.5184 94.5012C21.5184 94.5012 73.369 87.4015 89.7926 52.5082C106.216 17.5971 55.5042 -12.3141 26.8208 5.24826C-3.89098 24.0383 21.5184 94.5012 21.5184 94.5012Z" fill="#21B573"/>
<path d="M1.8565 176.21C1.34049 176.21 0.913407 175.783 0.931201 175.267C1.12693 158.131 4.86358 138.612 12.0344 117.259C17.764 100.195 25.6644 81.9211 35.5577 62.9531C52.3727 30.6576 69.3122 7.18782 69.4902 6.9565C69.7927 6.54725 70.3798 6.44047 70.7891 6.74296C71.1983 7.04545 71.3051 7.63266 71.0026 8.04191C70.8424 8.27323 53.9741 31.6541 37.2125 63.825C21.7676 93.487 3.26216 136.886 2.81732 175.284C2.78174 175.8 2.37252 176.21 1.8565 176.21Z" fill="#39393B"/>
<path d="M23.707 91.1561C23.5469 91.1561 23.369 91.1205 23.2267 91.0138C22.7818 90.7468 22.6572 90.1775 22.9241 89.7326C47.8708 49.2165 86.1449 21.0314 86.5364 20.7467C86.9456 20.4442 87.5329 20.5331 87.8354 20.9424C88.1379 21.3516 88.0488 21.9388 87.6396 22.2413C87.2659 22.526 49.2765 50.4976 24.5256 90.6935C24.3298 90.996 24.0273 91.1561 23.707 91.1561Z" fill="#39393B"/>
<path d="M22.5148 94.0742C22.2835 94.0742 22.0522 93.9853 21.8743 93.8251C21.5006 93.4692 21.4828 92.882 21.8387 92.5084C39.4366 74.1275 56.9989 63.0955 68.6359 57.0812C81.2694 50.5509 89.6146 48.3979 89.9705 48.309C90.4687 48.1844 90.9669 48.4869 91.0915 48.9851C91.216 49.4833 90.9135 49.9816 90.4153 50.1061C90.3263 50.1239 81.8744 52.3125 69.4188 58.7538C57.9241 64.6969 40.5754 75.6222 23.1732 93.7895C23.013 93.9674 22.7639 94.0742 22.5148 94.0742Z" fill="#39393B"/>
<path d="M27.6749 83.4515C27.5503 83.4515 27.4436 83.4337 27.319 83.3803C26.8386 83.1846 26.625 82.6508 26.8029 82.1703C41.3225 46.6186 39.3831 2.18792 39.3653 1.74308C39.3475 1.22707 39.739 0.800013 40.255 0.764425C40.7532 0.728838 41.1981 1.13809 41.2336 1.65411C41.2514 2.09895 43.2087 46.9389 28.5468 82.8821C28.3866 83.2379 28.0486 83.4515 27.6749 83.4515Z" fill="#39393B"/>
<path d="M24.0988 90.5332C24.0276 90.5332 23.9564 90.5331 23.8852 90.5154C23.387 90.4086 23.0667 89.9104 23.1913 89.4122C28.3158 66.7786 26.5364 47.9708 24.1521 36.1914C21.5542 23.4155 17.7109 15.8888 17.6753 15.7999C17.444 15.3372 17.6218 14.7856 18.0667 14.5543C18.5293 14.323 19.0809 14.5009 19.3123 14.9458C19.4724 15.2482 23.298 22.7216 25.9493 35.7465C28.387 47.7394 30.202 66.8498 25.0062 89.8214C24.9173 90.2307 24.5258 90.5332 24.0988 90.5332Z" fill="#39393B"/>
</svg>
