<svg width="71" height="75" viewBox="0 0 71 75" fill="none" xmlns="http://www.w3.org/2000/svg">
<path d="M35.809 74.0821C55.1241 74.0821 70.7821 58.6001 70.7821 39.5021C70.7821 20.4041 55.1241 4.92212 35.809 4.92212C16.4939 4.92212 0.835938 20.4041 0.835938 39.5021C0.835938 58.6001 16.4939 74.0821 35.809 74.0821Z" fill="#CED3E6"/>
<path d="M35.809 69.5841C55.1241 69.5841 70.7821 54.1021 70.7821 35.0041C70.7821 15.9061 55.1241 0.424072 35.809 0.424072C16.4939 0.424072 0.835938 15.9061 0.835938 35.0041C0.835938 54.1021 16.4939 69.5841 35.809 69.5841Z" fill="#21B573"/>
<path d="M35.8089 63.11C51.5163 63.11 64.2498 50.5265 64.2498 35.004C64.2498 19.4814 51.5163 6.89795 35.8089 6.89795C20.1015 6.89795 7.36816 19.4814 7.36816 35.004C7.36816 50.5265 20.1015 63.11 35.8089 63.11Z" fill="white"/>
<path d="M64.2498 35.004C64.2498 35.758 64.2238 36.4989 64.1588 37.2269C63.003 22.7579 50.7306 11.331 35.8089 11.331C20.8872 11.331 8.61489 22.7579 7.45908 37.2269C7.40713 36.4989 7.36816 35.758 7.36816 35.004C7.36816 19.508 20.121 6.89795 35.8089 6.89795C51.4838 6.89795 64.2498 19.508 64.2498 35.004Z" fill="#CED3E6"/>
<path d="M35.809 37.9291C35.5882 37.9291 35.3804 37.8251 35.2376 37.6431L21.2899 19.0791C21.0562 18.7671 21.1211 18.3251 21.4327 18.0911C21.7444 17.8571 22.199 17.9221 22.4327 18.2341L36.0427 36.3561L51.5099 29.6481C51.8735 29.4921 52.2891 29.6481 52.4449 30.0121C52.6008 30.3631 52.445 30.7791 52.0813 30.9351L36.0947 37.8771C36.0038 37.9161 35.8999 37.9291 35.809 37.9291Z" fill="#39393B"/>
</svg>
