<svg width="353" height="328" viewBox="0 0 353 328" fill="none" xmlns="http://www.w3.org/2000/svg">
<path d="M263.451 150.309C263.451 150.309 266.659 160.631 274.698 161.45C281.191 162.1 286.269 155.236 287.983 152.571C288.399 151.934 288.607 151.544 288.607 151.544C288.607 151.544 289.074 151.531 289.775 151.414C291.412 151.167 294.269 150.426 295.126 148.242C296.347 145.148 290.165 144.004 290.165 144.004C290.165 144.004 292.814 140.871 291.788 139.012C290.775 137.179 286.646 137.348 286.646 137.348C286.646 137.348 290.62 133.89 288.814 131.615C286.087 128.196 282.139 132.928 281.802 133.201C282.048 132.837 292.243 117.315 288.996 116.691C286.165 116.145 276.776 128.677 274.269 132.109C273.867 132.655 273.646 132.967 273.646 132.967C273.646 132.967 273.451 132.863 273.114 132.694C271.516 131.914 266.646 129.925 264.114 132.72C261.062 136.087 263.451 150.309 263.451 150.309Z" fill="#EA9B7A"/>
<path d="M283.256 145.902C282.035 146.877 281.022 148.099 280.789 149.23C280.646 149.958 280.815 150.595 281.295 151.076C281.62 151.414 282.139 151.674 282.763 151.869C284.321 152.376 286.503 152.519 287.97 152.558C288.386 151.921 288.594 151.531 288.594 151.531C288.594 151.531 289.074 151.518 289.762 151.414C289.659 151.349 289.542 151.323 289.425 151.323C287.1 151.375 283.074 151.115 282.165 150.205C282.048 150.088 281.918 149.893 281.996 149.49C282.256 148.255 284.256 146.37 286.113 145.642C286.412 145.525 286.568 145.213 286.49 144.901C286.412 144.589 286.1 144.394 285.788 144.446C284.269 144.68 280.035 145.018 278.711 143.679C278.516 143.484 278.542 143.367 278.555 143.302C278.62 143.003 278.932 142.665 279.373 142.314C280.282 141.599 281.75 140.858 282.841 140.429C282.97 140.377 283.061 140.299 283.126 140.195C283.243 140.026 283.269 139.818 283.191 139.623C283.061 139.298 282.711 139.142 282.386 139.272C281.905 139.467 280.204 140.156 278.893 141.118C278.425 141.469 277.996 141.846 277.711 142.262C277.529 142.522 277.399 142.782 277.334 143.055C277.256 143.445 277.269 144.017 277.828 144.576C279.009 145.733 281.373 145.954 283.256 145.902Z" fill="#D46A43"/>
<path d="M277.23 136.841C277.412 137.023 277.477 137.283 277.373 137.53C277.061 138.284 276.893 138.986 276.971 139.493C277.035 139.896 277.217 140.039 277.373 140.104C277.62 140.221 277.997 140.26 278.451 140.247C279.581 140.208 281.217 139.792 282.685 139.324C282.62 139.428 282.516 139.506 282.399 139.558C281.308 139.987 279.841 140.728 278.932 141.443C278.789 141.456 278.633 141.469 278.49 141.469C278.035 141.482 277.62 141.456 277.256 141.378C277.1 141.339 276.958 141.287 276.828 141.235C276.204 140.949 275.828 140.403 275.724 139.675C275.607 138.908 275.815 137.972 276.204 137.036C276.373 136.633 276.88 136.542 277.191 136.828C277.217 136.841 277.217 136.841 277.23 136.841Z" fill="#D46A43"/>
<path d="M266.088 138.921C266.218 139.012 268.256 140.338 270.516 141.079C271.776 141.482 273.101 141.716 274.204 141.43C275.126 141.209 275.815 140.676 276.256 139.857C277.841 136.958 275.698 133.747 274.269 132.096C273.867 132.642 273.646 132.954 273.646 132.954C273.646 132.954 273.451 132.85 273.114 132.681C274.334 134.033 276.451 136.893 275.165 139.246C274.893 139.753 274.477 140.065 273.906 140.208C271.763 140.741 268.023 138.7 266.763 137.868C266.477 137.673 266.088 137.751 265.906 138.05C265.724 138.349 265.802 138.739 266.088 138.921Z" fill="#D46A43"/>
<path d="M272.464 155.665C272.672 155.73 272.906 155.691 273.075 155.535C273.334 155.301 273.347 154.911 273.127 154.651C271.893 153.273 271.36 151.752 271.542 150.153C272.023 146.058 276.919 142.574 276.971 142.535C277.256 142.34 277.321 141.95 277.127 141.664C276.932 141.378 276.542 141.313 276.256 141.508C276.036 141.664 270.841 145.343 270.296 149.997C270.062 151.973 270.711 153.806 272.192 155.47C272.27 155.574 272.36 155.639 272.464 155.665Z" fill="#D46A43"/>
<path d="M194.804 104.484L201.128 120.5C202.076 123.178 203.037 125.856 204.011 128.521C204.972 131.186 205.946 133.838 206.933 136.477C207.933 139.116 208.907 141.742 209.907 144.329C210.907 146.916 211.946 149.477 212.985 151.96C214.011 154.443 215.076 156.874 216.128 159.045C216.647 160.124 217.18 161.125 217.621 161.918L217.92 162.438L218.037 162.646C218.063 162.698 218.063 162.698 218.076 162.737C218.115 162.841 218.128 162.906 218.141 162.958C218.154 163.062 218.115 163.127 218.167 163.218C218.206 163.322 218.362 163.452 218.686 163.608C219.349 163.907 220.777 164.115 222.569 164.037C224.362 163.959 226.504 163.595 228.725 163.023C230.946 162.451 233.296 161.71 235.66 160.813C240.387 159.019 245.231 156.744 250.01 154.196C254.802 151.661 258.322 149.62 262.984 146.708C264.477 153.624 269.36 159.214 276.438 161.879C271.906 166.013 267.153 169.848 262.153 173.501C257.127 177.128 251.854 180.56 246.049 183.589C243.14 185.097 240.114 186.54 236.829 187.775C233.543 189.01 230.05 190.089 226.102 190.765C224.128 191.103 222.037 191.337 219.803 191.376C217.57 191.402 215.193 191.259 212.7 190.778C210.206 190.297 207.596 189.478 205.076 188.23C202.557 186.995 200.154 185.318 198.103 183.394C197.077 182.432 196.142 181.418 195.284 180.378L194.674 179.598L194.168 178.922C193.999 178.688 193.856 178.48 193.7 178.272C193.557 178.064 193.388 177.83 193.258 177.635C192.142 175.984 191.22 174.476 190.362 172.994C188.661 170.056 187.22 167.261 185.817 164.479C184.441 161.697 183.155 158.941 181.908 156.185C180.661 153.442 179.454 150.699 178.298 147.943C177.142 145.2 175.999 142.457 174.882 139.701C173.778 136.945 172.701 134.202 171.649 131.446C170.61 128.69 169.571 125.921 168.558 123.152L167.064 118.979L166.337 116.873C166.09 116.158 165.857 115.482 165.61 114.728L194.804 104.484Z" fill="#21B573"/>
<path d="M212.024 171.122C212.271 171.122 212.505 171.018 212.66 170.797C212.686 170.758 215.738 166.715 218.388 164.817C218.751 164.557 218.829 164.063 218.569 163.699C218.31 163.335 217.816 163.257 217.452 163.517C214.595 165.558 211.505 169.666 211.375 169.835C211.115 170.186 211.18 170.693 211.531 170.953C211.686 171.07 211.855 171.122 212.024 171.122Z" fill="#217C58"/>
<path d="M217.453 171.915C217.504 171.915 217.569 171.915 217.621 171.902C218.05 171.811 218.323 171.382 218.232 170.953C218.219 170.914 217.492 167.521 218.219 164.96C218.336 164.531 218.089 164.089 217.673 163.972C217.245 163.855 216.803 164.102 216.686 164.518C215.842 167.469 216.634 171.148 216.673 171.304C216.751 171.668 217.076 171.915 217.453 171.915Z" fill="#217C58"/>
<path d="M210.037 257.273C195.258 265.788 159.532 270.169 136.234 260.913C127.689 257.52 126.182 255.427 126.831 240.061C126.857 239.489 126.883 238.917 126.909 238.345C126.974 237.136 127.052 235.927 127.143 234.731C127.182 234.146 127.234 233.574 127.273 233.002C127.442 230.857 127.65 228.751 127.883 226.736C127.948 226.177 128.013 225.631 128.065 225.085C128.598 220.587 129.455 216.544 130.234 213.411C130.377 212.852 130.52 212.306 130.65 211.812C131.481 208.744 132.143 206.898 132.143 206.898C135.896 207.509 139.766 207.86 143.662 208.016C144.208 208.042 144.766 208.055 145.311 208.068C165.467 208.601 185.973 204.038 195.479 201.555C196.05 201.412 196.583 201.269 197.076 201.126C199.544 200.463 200.946 200.034 200.946 200.034C200.946 200.034 201.816 201.555 203.037 204.077C203.258 204.545 203.505 205.039 203.739 205.572C205.674 209.732 208.141 215.764 209.544 222.056C209.57 222.134 209.582 222.212 209.595 222.29C209.712 222.836 209.829 223.382 209.946 223.928C209.972 224.032 209.998 224.149 210.011 224.253C210.972 228.816 211.855 233.613 212.453 238.189C212.53 238.774 212.595 239.359 212.673 239.944C213.855 250.006 214.037 254.972 210.037 257.273Z" fill="#39393B"/>
<path d="M210.037 224.266C209.998 224.253 209.959 224.227 209.933 224.214C206.933 222.576 204.284 220.093 202.011 216.804C201.7 216.362 201.401 215.894 201.102 215.413C198.817 211.695 196.934 207.067 195.492 201.568C196.064 201.425 196.596 201.282 197.09 201.139C198.505 206.573 200.349 211.097 202.596 214.685C202.895 215.166 203.206 215.621 203.518 216.076C205.297 218.624 207.323 220.626 209.57 222.069C209.596 222.147 209.609 222.225 209.622 222.303C209.739 222.849 209.855 223.395 209.972 223.941C209.985 224.045 210.011 224.162 210.037 224.266Z" fill="#585859"/>
<path d="M145.325 208.081C144.676 213.879 143.377 218.78 141.481 222.771C141.234 223.291 140.974 223.811 140.689 224.292C139.13 227.113 137.221 229.414 134.975 231.182C132.221 233.34 129.416 234.315 127.144 234.731C127.183 234.146 127.234 233.574 127.273 233.002C129.26 232.586 131.65 231.689 133.988 229.856C135.936 228.335 137.598 226.359 138.987 223.967C139.273 223.473 139.546 222.966 139.806 222.446C141.728 218.585 143.013 213.775 143.689 208.016C144.221 208.042 144.766 208.068 145.325 208.081Z" fill="#585859"/>
<path d="M203.752 205.585C202.609 206.092 201.388 206.612 200.077 207.145C199.57 207.353 199.051 207.561 198.518 207.769C190.908 210.746 180.947 213.801 170.194 214.906C169.779 214.945 169.363 214.984 168.961 215.023C159.208 215.92 149.273 215.504 141.091 214.737C140.507 214.685 139.935 214.633 139.364 214.568C135.91 214.217 132.806 213.814 130.234 213.424C130.377 212.865 130.52 212.319 130.65 211.825C133.299 212.215 136.481 212.631 140.039 212.995C140.598 213.047 141.169 213.099 141.741 213.151C150.078 213.905 160.195 214.282 170.026 213.268C180.519 212.189 190.246 209.212 197.713 206.313C198.246 206.105 198.752 205.897 199.259 205.702C200.609 205.156 201.869 204.623 203.038 204.103C203.271 204.558 203.505 205.065 203.752 205.585Z" fill="#585859"/>
<path d="M226.699 327.551C224.543 294.193 219.647 263.266 212.479 238.202L172.856 256.675C174.09 287.03 180.181 308.064 187.194 327.551H226.699Z" fill="#39393B"/>
<path d="M193.596 327.551C182.103 294.726 180.09 267.868 180.064 267.517C180.025 267.062 179.635 266.724 179.181 266.75C178.726 266.776 178.376 267.179 178.415 267.634C178.441 267.972 180.453 294.739 191.856 327.551H193.596Z" fill="#585859"/>
<path d="M164.974 327.551C167.415 303.852 170.233 274.745 170.597 263.474L126.832 240.048C126.832 240.048 119.118 266.698 124.182 327.538H164.974V327.551Z" fill="#39393B"/>
<path d="M160.973 327.551L168.311 266.867C168.376 266.347 168.012 265.879 167.493 265.827C166.973 265.762 166.506 266.126 166.454 266.646L159.09 327.551H160.973Z" fill="#585859"/>
<path d="M174.402 258.105C174.454 258.56 174.869 258.872 175.311 258.833C175.311 258.833 175.311 258.833 175.324 258.833C175.778 258.781 176.103 258.365 176.051 257.91C175.687 254.829 175.337 251.67 174.999 248.524C174.934 247.965 174.882 247.419 174.83 246.86C173.765 236.538 172.895 226.385 172.324 219.196C172.285 218.611 172.233 218.052 172.194 217.506C172.064 215.933 171.96 214.529 171.869 213.346C171.311 213.346 170.765 213.359 170.207 213.359C170.298 214.542 170.402 215.959 170.532 217.545C170.571 218.091 170.623 218.65 170.662 219.235C171.233 226.359 172.09 236.421 173.155 246.678C173.207 247.25 173.272 247.809 173.324 248.381C173.661 251.644 174.025 254.92 174.402 258.105Z" fill="#585859"/>
<path d="M170.285 247.731C170.558 247.809 171.791 248.173 173.324 248.368C173.856 248.446 174.428 248.498 174.999 248.511C175.532 248.524 176.051 248.511 176.57 248.459C177.57 248.342 178.492 248.082 179.233 247.549C180.142 246.886 180.635 245.885 180.648 244.65C180.713 241.4 179.778 228.179 179.064 218.845C179.025 218.273 178.986 217.714 178.934 217.168C178.817 215.673 178.713 214.321 178.622 213.164C178.077 213.19 177.518 213.216 176.973 213.229C177.064 214.386 177.168 215.764 177.285 217.285C177.324 217.831 177.363 218.39 177.415 218.962C178.116 228.283 179.051 241.478 178.986 244.624C178.973 245.352 178.739 245.859 178.246 246.223C177.454 246.795 176.155 246.925 174.817 246.86C174.246 246.834 173.674 246.769 173.142 246.678C172.155 246.522 171.285 246.314 170.752 246.158C170.311 246.028 169.856 246.275 169.726 246.717C169.597 247.146 169.843 247.601 170.285 247.731Z" fill="#585859"/>
<path d="M120.416 117.939L183.583 116.314C181.622 113.571 181.804 87.3631 180.934 81.9551C180.025 76.3781 180.726 65.3021 181.557 56.2541C183.168 38.8861 169.077 24.0011 151.675 24.8591C151.415 24.8721 151.155 24.8851 150.883 24.8981C124.325 26.5881 122.377 49.3641 124.844 63.1571C127.104 75.7021 128.676 109.931 120.416 117.939Z" fill="#39393B"/>
<path d="M134.117 200.06L139.208 221.445C151.935 220.431 166.986 218.585 178.324 212.722C178.324 212.722 193.427 217.805 201.089 215.439L195.479 200.073H134.117V200.06Z" fill="white"/>
<path d="M208.894 215.881C194.219 215.777 185.414 213.879 177.415 207.314C162.402 222.927 125.325 223.525 125.325 223.525C129.039 211.539 130.247 190.336 130.247 190.336C129.948 188.139 129.793 185.851 129.559 183.524C129.325 181.21 129.013 178.857 128.416 176.543C124.754 165.974 120.481 158.395 116.676 147.462C116.429 146.747 116.183 146.045 115.923 145.343C115.754 144.875 115.585 144.42 115.416 143.965C114.17 140.546 112.819 137.14 111.416 133.864C105.274 119.551 104.287 103.405 119.053 98.478C120.131 98.127 121.182 97.776 122.208 97.451C129.195 95.241 135.013 93.785 136.637 93.395C136.935 93.33 137.078 93.291 137.078 93.291L168.077 95.865L171.025 96.112C175.363 96.593 179.947 96.476 182.843 97.113C185.389 97.672 186.934 97.542 189.531 98.309C195.635 100.116 195.466 108.345 197.362 118.563C197.388 118.732 197.427 118.914 197.453 119.096C197.466 119.148 197.479 119.213 197.492 119.265C197.83 121.007 198.219 122.723 198.674 124.426C199.18 126.324 199.739 128.209 200.323 130.029C203.895 141.248 208.206 146.396 207.466 153.468C206.791 159.864 200.284 168.587 198.557 170.446C198.154 170.875 197.921 171.109 197.921 171.109C197.921 171.135 197.934 171.174 197.934 171.213C197.96 171.46 197.986 171.733 198.025 172.019C198.154 173.098 198.349 174.372 198.583 175.828C199.115 181.223 199.882 186.124 200.739 190.479C201.206 192.832 201.7 195.029 202.219 197.057C205.323 209.342 208.894 215.881 208.894 215.881Z" fill="#21B573"/>
<path d="M202.219 197.031C198.025 199.254 194.635 200.736 194.635 200.736L191.505 194.834C194.505 193.755 197.713 192.156 200.739 190.44C201.427 192.273 202.064 194.132 202.219 197.031Z" fill="#217C58"/>
<path d="M134.584 191.493C134.584 191.493 148.688 197.486 159.129 198.5L157.532 204.987C157.532 204.987 140.428 202.166 133.584 197.278L134.584 191.493Z" fill="#217C58"/>
<path d="M200.453 169.484C200.661 169.484 200.869 169.406 201.038 169.237C201.427 168.834 210.375 159.266 207.258 150.543C206.388 148.112 205.388 145.668 204.31 143.081C201.064 135.203 197.388 126.285 196.453 114.715C196.414 114.273 196.025 113.948 195.596 113.987C195.155 114.026 194.83 114.403 194.869 114.845C195.83 126.662 199.557 135.71 202.843 143.692C203.908 146.266 204.908 148.697 205.765 151.089C208.557 158.889 199.986 168.054 199.895 168.145C199.596 168.47 199.609 168.977 199.921 169.276C200.051 169.419 200.245 169.484 200.453 169.484Z" fill="#217C58"/>
<path d="M174.402 135.385C174.402 136.347 173.623 137.127 172.662 137.127C171.701 137.127 170.921 136.347 170.921 135.385C170.921 134.423 171.701 133.643 172.662 133.643C173.623 133.643 174.402 134.423 174.402 135.385Z" fill="#217C58"/>
<path d="M176.999 150.816C176.999 151.778 176.22 152.558 175.259 152.558C174.298 152.558 173.519 151.778 173.519 150.816C173.519 149.854 174.298 149.074 175.259 149.074C176.22 149.074 176.999 149.854 176.999 150.816Z" fill="#217C58"/>
<path d="M178.544 166.494C178.544 167.456 177.765 168.236 176.804 168.236C175.843 168.236 175.064 167.456 175.064 166.494C175.064 165.532 175.843 164.752 176.804 164.752C177.778 164.752 178.544 165.532 178.544 166.494Z" fill="#217C58"/>
<path d="M179.22 182.627C179.22 183.589 178.44 184.369 177.479 184.369C176.518 184.369 175.739 183.589 175.739 182.627C175.739 181.665 176.518 180.885 177.479 180.885C178.44 180.885 179.22 181.665 179.22 182.627Z" fill="#217C58"/>
<path d="M179.142 199.397C179.142 200.359 178.363 201.139 177.402 201.139C176.441 201.139 175.662 200.359 175.662 199.397C175.662 198.435 176.441 197.655 177.402 197.655C178.363 197.655 179.142 198.435 179.142 199.397Z" fill="#217C58"/>
<path d="M164.506 95.8389C164.506 95.8389 171.233 95.2279 175.96 96.4889L175.454 114.195L171.428 115.066L174.817 118.407L170.752 130.289C170.752 130.263 165.194 110.503 164.506 95.8389Z" fill="#217C58"/>
<path d="M137.065 93.291L124.754 96.658L139.221 115.898L150.065 115.027L146.26 123.334L170.753 130.25C170.753 130.25 142.39 103.288 140.117 93.538L137.065 93.291Z" fill="#217C58"/>
<path d="M139.221 94.7341C139.221 94.7341 146.298 109.814 170.752 130.25C170.752 130.25 169.441 114.169 164.519 96.9311C164.519 96.9441 150.117 101.962 139.221 94.7341Z" fill="white"/>
<path d="M174.155 142.886C166.103 142.886 149.662 131.342 148.961 130.848C148.662 130.64 148.597 130.224 148.805 129.925C149.013 129.626 149.428 129.561 149.727 129.769C149.896 129.886 166.519 141.573 174.155 141.573C181.467 141.573 183.077 133.578 183.103 133.5C183.168 133.136 183.518 132.902 183.882 132.98C184.246 133.045 184.479 133.396 184.402 133.76C184.389 133.825 182.544 142.886 174.155 142.886Z" fill="#217C58"/>
<path d="M164.506 95.8391L164.831 100.012C165.454 107.799 159.909 110.009 151.857 105.888C145.494 102.625 140.091 97.7631 139.208 94.7471L164.506 95.8391Z" fill="#EA9B7A"/>
<path d="M152.974 175.386C153.104 175.62 153.35 175.75 153.597 175.75C153.714 175.75 153.844 175.724 153.948 175.659C154.065 175.594 165.701 169.029 179.908 171.811C187.129 173.215 193.258 173.072 198.024 172.006C197.985 171.72 197.959 171.46 197.934 171.2C197.934 171.161 197.921 171.135 197.921 171.096C197.921 171.096 198.154 170.862 198.557 170.446C193.895 171.629 187.661 171.863 180.181 170.394C165.428 167.508 153.727 174.125 153.233 174.411C152.896 174.606 152.779 175.035 152.974 175.386Z" fill="#217C58"/>
<path d="M177.791 43.8391C177.791 43.8391 181.363 57.8921 179.077 60.3361C176.791 62.7931 173.402 57.5281 173.402 57.5281C173.402 57.5281 175.077 44.4111 177.791 43.8391Z" fill="#39393B"/>
<path d="M173.856 62.455C173.856 62.455 177.558 58.087 179.648 62.455C181.739 66.823 180.129 75.676 174.506 74.233L173.856 62.455Z" fill="#D46A43"/>
<path d="M170.61 73.323C168.558 74.285 167.129 76.365 167.129 78.783C167.129 82.111 169.83 84.815 173.155 84.815C176.48 84.815 179.181 82.111 179.181 78.783C179.181 76.391 177.791 74.324 175.778 73.349C175.09 73.011 174.324 72.803 173.519 72.764C173.376 72.387 173.246 72.01 173.09 71.646C173.116 71.646 173.142 71.646 173.155 71.646C174.142 71.646 175.09 71.854 175.934 72.218C178.48 73.31 180.285 75.845 180.285 78.783C180.285 82.722 177.09 85.92 173.155 85.92C169.22 85.92 166.025 82.722 166.025 78.783C166.025 76.131 167.48 73.817 169.623 72.582L170.61 73.323Z" fill="white"/>
<path d="M164.519 84.8801V96.9311C164.519 96.9311 158.168 107.344 139.221 94.7341C142.805 90.7171 142.922 82.9691 141.467 78.3411C141.467 78.3411 142.857 79.2771 145.156 80.3041C145.623 80.5121 146.13 80.7331 146.662 80.9541C151.389 82.9561 158.519 85.3481 164.519 84.8801Z" fill="#EA9B7A"/>
<path d="M164.519 84.88V90.522C159.363 89.378 150.337 86.557 145.156 80.304C145.623 80.512 146.13 80.733 146.662 80.954C151.389 82.956 158.519 85.348 164.519 84.88Z" fill="#39393B"/>
<path d="M174.817 80.9411C164.701 91.4191 142.247 78.9131 141.52 78.5101C141.507 78.4971 141.507 78.4971 141.507 78.4971C141.299 77.5611 141.117 76.6251 140.948 75.7151C139.52 67.9151 139.429 60.6871 140.221 53.8101C139.844 46.5561 144.156 39.8091 150.974 37.3131C158.039 34.7391 164.376 37.8461 168.181 39.0161C173.921 40.7841 177.545 48.2201 177.571 58.8151C177.584 71.8021 177.324 78.3411 174.817 80.9411Z" fill="#EA9B7A"/>
<path d="M176.35 46.725C174.012 47.05 171.609 47.297 169.142 47.492L167.791 41.018L167.35 47.622C162.804 47.934 158.09 48.051 153.246 48.051L152.649 41.239L151.324 48.051C147.74 48.038 144.104 47.96 140.441 47.856C137.506 34.271 152.22 28.356 164.597 31.177C176.96 34.011 176.35 46.725 176.35 46.725Z" fill="#39393B"/>
<path d="M149.831 43.839C149.831 43.839 145.273 49.923 147.766 55.578C150.26 61.233 148.519 66.771 147.338 70.892C147.338 70.892 144.753 61.792 138.663 60.102C132.572 58.399 135.715 41.72 149.831 43.839Z" fill="#39393B"/>
<path d="M166.129 75.221C167.467 75.429 168.545 75.065 168.61 75.039C168.83 74.961 168.96 74.714 168.882 74.493C168.804 74.272 168.558 74.142 168.337 74.22C168.311 74.233 166.22 74.909 164.48 73.635C164.285 73.492 164.012 73.531 163.87 73.726C163.727 73.921 163.766 74.194 163.96 74.324C164.688 74.87 165.441 75.117 166.129 75.221Z" fill="#D46A43"/>
<path d="M172.558 68.4481C172.558 68.4481 165.519 70.9051 160.233 67.4211C160.233 67.4211 162.09 72.1791 166.649 72.6341C171.207 73.0761 172.558 68.4481 172.558 68.4481Z" fill="white"/>
<path d="M161.35 49.1689C161.35 49.1689 163.454 49.3769 162.714 51.3009C161.974 53.2249 157.766 51.1059 154.753 54.6549C154.753 54.6679 153.467 50.0399 161.35 49.1689Z" fill="#39393B"/>
<path d="M170.87 49.1689C170.87 49.1689 168.766 49.3769 169.506 51.3009C170.246 53.2249 174.454 51.1059 177.467 54.6549C177.467 54.6679 178.753 50.0399 170.87 49.1689Z" fill="#39393B"/>
<g opacity="0.8">
<g opacity="0.8">
<g opacity="0.8">
<g opacity="0.8">
<g opacity="0.8">
<g opacity="0.8">
<g opacity="0.8">
<path opacity="0.8" d="M160.208 63.4561C160.208 64.4311 158.195 65.237 155.701 65.237C153.208 65.237 151.195 64.4441 151.195 63.4561C151.195 62.4811 153.208 61.675 155.701 61.675C158.195 61.675 160.208 62.4811 160.208 63.4561Z" fill="#D46A43"/>
</g>
</g>
</g>
</g>
</g>
</g>
</g>
<path d="M178.57 65.185C178.22 65.224 177.856 65.237 177.48 65.237C174.986 65.237 172.973 64.4441 172.973 63.4561C172.973 62.4811 174.986 61.675 177.48 61.675C177.817 61.675 178.142 61.688 178.454 61.714L178.57 65.185Z" fill="#D46A43"/>
<path d="M160.727 58.8019C160.727 60.1539 160.116 61.2459 159.363 61.2459C158.61 61.2459 158 60.1539 158 58.8019C158 57.4499 158.61 56.3579 159.363 56.3579C160.116 56.3709 160.727 57.4629 160.727 58.8019Z" fill="#39393B"/>
<path d="M174.038 58.8019C174.038 60.1539 173.428 61.2459 172.675 61.2459C171.921 61.2459 171.311 60.1539 171.311 58.8019C171.311 57.4499 171.921 56.3579 172.675 56.3579C173.428 56.3709 174.038 57.4629 174.038 58.8019Z" fill="#39393B"/>
<path d="M168.817 63.937C169.467 63.937 169.895 63.833 169.934 63.82C170.09 63.781 170.207 63.677 170.285 63.547C170.363 63.404 170.376 63.248 170.324 63.105L168.272 57.229C168.168 56.943 167.856 56.787 167.571 56.891C167.285 56.995 167.129 57.307 167.233 57.593L169.051 62.819C168.493 62.845 167.636 62.793 166.779 62.325C166.506 62.182 166.168 62.286 166.025 62.546C165.883 62.819 165.986 63.157 166.246 63.3C167.194 63.82 168.129 63.937 168.817 63.937Z" fill="#39393B"/>
<path d="M145.896 73.05C145.831 73.206 144.065 77.314 141.52 78.51C141.507 78.497 141.507 78.4971 141.507 78.4971C141.299 77.5611 141.117 76.6251 140.948 75.7151C141.026 75.6891 143.598 75.247 145.896 73.05Z" fill="#39393B"/>
<path d="M143.429 63.6901C143.429 63.6901 138.052 56.4621 134.104 62.1431C130.858 66.8231 136.974 79.3031 143.545 74.7401L143.429 63.6901Z" fill="#EA9B7A"/>
<path d="M137.857 74.818C135.805 75.78 134.377 77.899 134.377 80.304C134.377 83.632 137.078 86.336 140.403 86.336C143.727 86.336 146.428 83.632 146.428 80.304C146.428 77.912 145.039 75.845 143.026 74.87C142.338 74.532 141.571 74.324 140.766 74.285C140.623 73.908 140.494 73.531 140.338 73.167C140.364 73.167 140.39 73.167 140.403 73.167C141.39 73.167 142.338 73.375 143.182 73.739C145.727 74.831 147.532 77.366 147.532 80.304C147.532 84.243 144.338 87.441 140.403 87.441C136.468 87.441 133.273 84.243 133.273 80.304C133.273 77.652 134.766 75.299 136.909 74.064C137.208 74.35 137.52 74.61 137.857 74.818Z" fill="white"/>
<path d="M142.688 72.6731C142.714 72.6731 142.727 72.6731 142.753 72.6731C143.052 72.6341 143.273 72.3611 143.247 72.0621C142.571 65.9131 137.403 63.7811 137.182 63.6901C136.896 63.5731 136.572 63.7161 136.468 64.0021C136.351 64.2881 136.494 64.6131 136.779 64.7171C136.987 64.7951 141.558 66.7061 142.156 72.1791C142.169 72.4651 142.416 72.6731 142.688 72.6731Z" fill="#39393B"/>
<path d="M137.52 69.319C137.636 69.319 137.766 69.28 137.87 69.189C138.351 68.799 139.805 67.837 140.766 68.084C141.065 68.162 141.364 67.98 141.442 67.681C141.519 67.382 141.338 67.083 141.039 67.005C139.377 66.576 137.39 68.149 137.169 68.318C136.935 68.513 136.896 68.864 137.091 69.098C137.208 69.241 137.364 69.319 137.52 69.319Z" fill="#39393B"/>
<path d="M100.781 178.194C100.781 178.194 102.547 182.016 100.508 190.349C98.4689 198.695 95.0535 203.921 95.0535 203.921C95.0535 203.921 86.4953 190.934 100.781 178.194Z" fill="#217C58"/>
<path d="M63.0668 170.212C63.0928 170.628 63.1188 171.057 63.1577 171.46C63.2097 171.876 63.2746 172.279 63.3395 172.695C63.3785 172.89 63.4044 173.098 63.4564 173.306L63.5993 173.891C63.9629 175.477 64.5343 176.894 65.1576 178.194C65.4693 178.818 65.82 179.455 66.1576 180.001C66.3395 180.274 66.5083 180.56 66.6901 180.833L67.2355 181.6C68.716 183.615 70.2874 185.123 71.8068 186.41C73.3393 187.697 74.8587 188.75 76.3392 189.699C77.0794 190.18 77.8196 190.609 78.5599 191.038C79.3001 191.467 80.0144 191.857 80.7416 192.247C82.1961 193.001 83.6247 193.716 85.0532 194.366C87.9103 195.679 90.7414 196.784 93.5725 197.785C96.3906 198.786 99.2217 199.683 102.027 200.502C104.845 201.334 107.65 202.088 110.468 202.777C113.286 203.466 116.104 204.09 118.948 204.688C119.974 204.896 121.39 205.039 122.87 205.156C125.13 205.325 127.585 205.455 129.195 205.728C129.584 203.388 127.611 201.503 128 199.163C128.455 196.433 128.909 193.69 129.403 190.96L128.273 188.516C126.559 188.1 124.844 187.658 123.117 187.203C123.065 187.19 123.013 187.177 122.961 187.164C120.455 186.488 117.974 185.734 115.507 184.928C113.001 184.122 110.507 183.251 108.053 182.328C105.611 181.405 103.222 180.417 100.897 179.364C98.5853 178.311 96.3257 177.206 94.2348 176.023C93.1959 175.438 92.1699 174.84 91.2349 174.203C90.7674 173.891 90.2998 173.579 89.8713 173.254C89.4427 172.929 89.0272 172.604 88.6376 172.279C88.0402 171.785 87.4947 171.265 87.0532 170.784C86.9233 170.641 86.8064 170.511 86.6896 170.368L86.6636 170.342L87.0662 169.796L87.7934 168.808C88.17 168.288 88.5336 167.781 88.9492 167.248C89.7544 166.195 90.5336 165.155 91.3518 164.102L93.8322 160.956C95.5205 158.863 97.1957 156.744 98.923 154.651L100.209 153.078L101.507 151.505L103.338 149.295L104.118 148.359L105.066 147.215L106.741 145.2L109.39 142.054C111.143 139.961 112.91 137.855 114.689 135.775L125.299 123.243L125.364 123.165C129.831 117.887 129.182 109.97 123.909 105.498C118.676 101.065 110.871 101.676 106.377 106.824L103.598 110.022L100.871 113.22C99.9619 114.286 99.0658 115.365 98.1698 116.431C97.2737 117.497 96.3646 118.576 95.4815 119.655C93.7023 121.813 91.9232 123.984 90.157 126.168L87.5207 129.457L87.1701 129.899L84.8974 132.772C84.0273 133.877 83.1572 134.995 82.3001 136.1L81.0014 137.777L80.417 138.544L79.7157 139.467C78.0015 141.716 76.3002 143.991 74.6119 146.292L72.0926 149.789C71.2614 150.959 70.4302 152.181 69.5991 153.377C69.1835 153.962 68.768 154.586 68.3524 155.223L67.1186 157.095L66.807 157.563L66.7291 157.68L66.6901 157.745L66.6251 157.836L66.3654 158.252C66.1966 158.538 66.0278 158.811 65.8589 159.097C65.781 159.24 65.6901 159.396 65.6122 159.552L65.3784 160.02C65.2226 160.332 65.0667 160.631 64.9109 160.956C64.768 161.294 64.6252 161.632 64.4953 161.97L64.3006 162.49C64.2356 162.659 64.1707 162.854 64.1187 163.036C64.0018 163.4 63.885 163.777 63.7811 164.141C63.6772 164.518 63.5993 164.921 63.5083 165.311C63.4304 165.701 63.3395 166.091 63.2876 166.507C63.2356 166.923 63.1837 167.326 63.1447 167.742C63.1058 168.158 63.0928 168.574 63.0798 169.003L63.0668 169.627C63.0538 169.796 63.0668 170.004 63.0668 170.212Z" fill="#EA9B7A"/>
<path d="M117.845 185.656C117.845 185.656 115.819 183.68 113.326 184.187C113.326 184.187 107.43 194.184 110.494 202.764C110.494 202.764 111.858 203.999 114.728 203.765C114.715 203.765 111.858 193.456 117.845 185.656Z" fill="black"/>
<path d="M106.404 194.392C106.585 197.681 109.404 200.19 112.676 200.008C115.962 199.826 118.468 197.005 118.286 193.729C118.105 190.44 115.287 187.931 112.014 188.113C108.728 188.282 106.209 191.103 106.404 194.392Z" fill="black"/>
<path d="M112.598 198.5C115.053 198.357 116.936 196.251 116.793 193.807C116.65 191.35 114.546 189.465 112.092 189.608C109.637 189.751 107.754 191.857 107.897 194.301C108.04 196.745 110.144 198.643 112.598 198.5Z" fill="white"/>
<path d="M122.858 204.844C125.118 205.013 127.572 205.143 129.182 205.416C129.572 203.076 127.598 201.191 127.988 198.851C128.442 196.121 128.897 193.378 129.39 190.648L128.26 188.204C126.546 187.788 124.832 187.346 123.105 186.891C123.053 186.878 123.001 186.865 122.949 186.852C122.247 190.726 121.157 198.877 122.858 204.844Z" fill="#D46A43"/>
<path d="M128.403 111.66C129.611 115.56 128.689 119.824 126.013 122.905C121.001 128.703 111.416 139.909 106.105 146.942C98.6765 156.77 89.3001 169.107 89.3001 169.107C89.3001 169.107 96.0532 175.048 100.793 178.181C100.793 178.181 89.2092 187.983 95.0662 203.908C95.0662 203.908 74.2486 192.455 63.7164 181.457C56.0283 173.423 58.1581 163.4 65.1839 153.806C68.7293 148.97 96.0922 117.757 105.806 106.837C109.391 102.807 115.053 101.195 120.143 102.95C123.39 104.094 126.819 106.538 128.403 111.66Z" fill="#21B573"/>
<path d="M123.338 189.816C123.338 189.816 124.156 185.045 125.39 180.469C126.416 176.647 128.494 175.464 128.494 175.464C128.948 178.064 129.585 179.637 129.663 184.369C129.663 184.369 130.818 183.29 132.922 183.719C135.026 184.148 142.273 185.682 142.377 187.359C142.584 191.194 133.507 189.374 133.507 189.374C133.507 189.374 143.234 191.207 142.987 193.898C142.792 196.069 133.987 196.485 133.987 196.485C133.987 196.485 142.48 196.563 141.454 199.618C140.377 202.855 132.494 200.814 132.494 200.814C132.494 200.814 138.169 203.544 137.623 204.688C136.831 206.339 133.468 206.794 128.039 205.468C122.455 204.103 123.338 189.816 123.338 189.816Z" fill="#EA9B7A"/>
<path d="M113.313 139.935C113.105 139.961 112.884 139.909 112.715 139.766C112.403 139.493 112.351 139.025 112.624 138.713L125.195 123.776C125.468 123.464 125.936 123.412 126.247 123.685C126.559 123.958 126.611 124.426 126.338 124.738L113.767 139.675C113.65 139.818 113.481 139.909 113.313 139.935Z" fill="#217C58"/>
<path d="M126.974 128.859L122.221 129.587C121.806 129.652 121.429 129.366 121.364 128.963C121.299 128.547 121.585 128.17 121.988 128.105L126.741 127.377C127.156 127.312 127.533 127.598 127.598 128.001C127.663 128.417 127.377 128.794 126.974 128.859Z" fill="#217C58"/>
<path d="M75.8199 172.344C75.8978 172.448 76.0016 172.513 76.1185 172.526C76.2484 172.552 76.3913 172.526 76.5081 172.435C80.0925 169.77 86.4689 169.484 89.6247 169.523C89.4948 169.38 89.3779 169.25 89.261 169.107L89.2351 169.081L89.6376 168.522C89.3519 168.522 89.0403 168.509 88.7026 168.522C86.7286 166.624 81.4041 164.778 81.1704 164.7C80.9106 164.609 80.6379 164.752 80.547 164.999C80.4561 165.259 80.5989 165.532 80.8457 165.623C80.8976 165.636 84.9495 167.04 87.1832 168.561C83.7028 168.717 78.9496 169.367 75.9107 171.642C75.7029 171.824 75.664 172.123 75.8199 172.344Z" fill="#217C58"/>
</svg>
