<svg width="7" height="7" viewBox="0 0 7 7" fill="none" xmlns="http://www.w3.org/2000/svg">
<path d="M0.578747 6.54403L0.370916 6.33604C0.0332624 5.99804 0.0332624 5.46504 0.370916 5.12704L5.189 0.304037C5.52665 -0.0339629 6.0591 -0.0339629 6.39675 0.304037L6.60458 0.512032C6.94223 0.850032 6.94223 1.38303 6.60458 1.72103L1.7865 6.54403C1.44884 6.88203 0.903414 6.88203 0.578747 6.54403Z" fill="#39393B"/>
<path d="M6.37079 6.54403L6.57862 6.33604C6.91628 5.99804 6.91628 5.46504 6.57862 5.12704L1.76054 0.304037C1.42289 -0.0339629 0.890442 -0.0339629 0.552789 0.304037L0.345037 0.512032C0.00738354 0.850032 0.00738354 1.38303 0.345037 1.72103L5.16304 6.54403C5.50069 6.88203 6.04612 6.88203 6.37079 6.54403Z" fill="#39393B"/>
</svg>
