<svg width="502" height="285" viewBox="0 0 502 285" fill="none" xmlns="http://www.w3.org/2000/svg">
<path d="M489.669 1.26219C489.539 1.23619 489.422 1.2102 489.292 1.1842C489.227 1.1712 489.175 1.1582 489.11 1.1582C488.981 1.1322 488.851 1.1062 488.721 1.0932C488.526 1.0672 488.331 1.04119 488.123 1.02819C488.007 1.01519 487.89 1.00219 487.773 0.989194H487.76C487.591 0.976194 487.435 0.963198 487.266 0.963198C487.046 0.950198 486.812 0.950195 486.591 0.950195H15.9672C7.49985 0.950195 0.629883 7.82719 0.629883 16.3032V284.194H501.915V16.3032C501.915 8.88019 496.656 2.69219 489.669 1.26219ZM482.033 257.427C482.033 259.741 480.163 261.6 477.864 261.6H24.6812C22.3696 261.6 20.5125 259.728 20.5125 257.427V25.0262C20.5125 22.7122 22.3826 20.8532 24.6812 20.8532H477.864C480.176 20.8532 482.033 22.7252 482.033 25.0262V257.427Z" fill="#39393B"/>
</svg>
