<svg width="44" height="16" viewBox="0 0 44 16" fill="none" xmlns="http://www.w3.org/2000/svg">
<path d="M13.2427 4.56014C13.2427 6.93914 11.3207 8.86314 8.94409 8.86314C6.56753 8.86314 4.64551 6.93914 4.64551 4.56014C4.64551 2.18114 6.56753 0.257145 8.94409 0.257145C11.3207 0.244145 13.2427 2.18114 13.2427 4.56014Z" fill="#DF615C"/>
<path d="M16.9828 15.4542H0.905273C0.905273 15.4542 2.7364 10.3452 8.82715 10.3452C8.86611 10.3452 8.90506 10.3452 8.94402 10.3452C8.98298 10.3452 9.02194 10.3452 9.0609 10.3452C15.1516 10.3322 16.9828 15.4542 16.9828 15.4542Z" fill="#DF615C"/>
<path d="M31.8134 1.94727V4.65127L27.4759 14.9863H22.6709L26.8006 5.35326H24.2942V7.25127H20.6709V1.94727H31.8134Z" fill="#39393B"/>
<path d="M43.2417 11.5802V14.9862H32.8004V12.2822L37.5016 7.92718C38.3976 7.09518 38.5275 6.58819 38.5275 6.13319C38.5275 5.49619 38.099 5.10618 37.2678 5.10618C36.4886 5.10618 35.7484 5.53519 35.3458 6.31519L32.0342 4.66418C32.9822 2.87018 34.8653 1.64819 37.6704 1.64819C40.7612 1.64819 42.93 3.24719 42.93 5.73019C42.93 7.01719 42.5924 8.17419 40.6963 9.89019L38.8392 11.5802H43.2417Z" fill="#39393B"/>
</svg>
