<svg width="100" height="191" viewBox="0 0 100 191" fill="none" xmlns="http://www.w3.org/2000/svg">
<path d="M68.3726 96.1418C68.3726 96.1418 17.0379 85.9994 2.71402 50.1808C-11.6099 14.3622 40.7747 -12.5062 68.3726 6.72871C97.91 27.2982 68.3726 96.1418 68.3726 96.1418Z" fill="#21B573"/>
<path d="M98.9065 190.252C98.4617 190.252 98.0525 189.914 97.9813 189.452C93.0703 156.178 73.2303 108.313 57.483 74.0243C40.3833 36.8356 24.2622 7.15586 24.1021 6.85337C23.853 6.40853 24.031 5.83912 24.4758 5.59001C24.9206 5.3409 25.49 5.51885 25.7391 5.96369C25.8992 6.26618 42.0558 35.9994 59.1911 73.2415C75.0096 107.654 94.903 155.697 99.8496 189.185C99.9208 189.701 99.5827 190.163 99.0667 190.235C98.9955 190.235 98.9421 190.252 98.9065 190.252Z" fill="#39393B"/>
<path d="M66.4508 92.6722C66.1127 92.6722 65.7925 92.4943 65.6323 92.1918C43.3013 50.6081 7.03786 20.4301 6.68198 20.1276C6.29052 19.8073 6.23713 19.2201 6.55742 18.8286C6.8777 18.4372 7.46486 18.3838 7.85632 18.7041C8.22998 19.0066 44.7604 49.3981 67.2693 91.3199C67.5184 91.7648 67.3405 92.3342 66.8956 92.5833C66.7355 92.6367 66.5931 92.6722 66.4508 92.6722Z" fill="#39393B"/>
<path d="M67.465 95.6613C67.1981 95.6613 66.949 95.5546 66.7532 95.3411C50.472 76.1773 33.7817 64.2556 22.6606 57.6363C10.5965 50.4655 2.28693 47.7787 2.21576 47.7609C1.73533 47.6007 1.45058 47.0847 1.61073 46.5865C1.77087 46.1061 2.28695 45.8214 2.78517 45.9815C3.12325 46.0883 11.3439 48.7218 23.5681 55.9994C34.8315 62.6898 51.7177 74.7538 68.1768 94.1311C68.5149 94.5226 68.4615 95.1097 68.0701 95.4478C67.8921 95.5902 67.6608 95.6613 67.465 95.6613Z" fill="#39393B"/>
<path d="M62.9454 84.754C62.554 84.754 62.1981 84.5049 62.0736 84.1312C49.5468 47.3873 54.1553 2.74308 54.2087 2.29824C54.2621 1.78222 54.7247 1.42634 55.2229 1.47972C55.739 1.5331 56.0949 1.99575 56.0415 2.49397C55.9881 2.93881 51.4329 47.1916 63.8173 83.5262C63.9774 84.0067 63.7283 84.5404 63.2301 84.7006C63.1411 84.7362 63.0344 84.754 62.9454 84.754Z" fill="#39393B"/>
<path d="M66.0951 92.0315C65.6502 92.0315 65.2589 91.7112 65.1877 91.2486C61.3621 67.9923 64.2979 49.0243 67.4474 37.2093C70.8638 24.3801 75.1342 17.1558 75.3122 16.8533C75.5791 16.4085 76.1485 16.2662 76.5934 16.5331C77.0382 16.8 77.1806 17.3694 76.9136 17.8142C76.8781 17.8854 72.572 25.163 69.2268 37.7787C66.1485 49.3979 63.2659 68.0813 67.0204 90.9639C67.1094 91.4621 66.7535 91.9425 66.2553 92.0315C66.1841 92.0137 66.1307 92.0315 66.0951 92.0315Z" fill="#39393B"/>
</svg>
