<svg width="67" height="58" viewBox="0 0 67 58" fill="none" xmlns="http://www.w3.org/2000/svg">
<path d="M62.1538 44.6106L4.18215 44.575C1.94016 44.575 0.107422 42.7422 0.107422 40.5002L0.125206 4.87734C0.125206 2.63535 1.95797 0.802612 4.19997 0.802612L62.1716 0.838207C64.4136 0.838207 66.2464 2.67094 66.2464 4.91294L66.2286 40.5358C66.2286 42.7956 64.4136 44.6106 62.1538 44.6106Z" fill="#DF615C"/>
<path d="M58.7017 38.0447L53.417 58.0092L44.1821 39.2369L58.7017 38.0447Z" fill="#DF615C"/>
<path d="M47.8299 19.4858C46.6555 26.9591 32.6875 36.3186 32.6875 36.3186C32.6875 36.3186 19.2533 26.9413 18.4882 19.4502C17.6519 11.3363 27.2604 8.863 33.2925 14.984C39.6448 8.88079 49.111 11.3719 47.8299 19.4858Z" fill="white"/>
</svg>
